M48
; DRILL file {KiCad (5.1.10)-1} date 10/05/21 02:57:29
; FORMAT={-:-/ absolute / metric / decimal}
; #@! TF.CreationDate,2021-10-05T02:57:29+03:00
; #@! TF.GenerationSoftware,Kicad,Pcbnew,(5.1.10)-1
; #@! TF.FileFunction,Plated,1,2,PTH
FMAT,2
METRIC
T1C0.400
T2C0.500
T3C0.550
T4C0.950
T5C1.100
T6C1.800
%
G90
G05
T1
X145.25Y-64.75
X150.75Y-67.5
X150.75Y-69.25
X150.75Y-70.75
X151.25Y-62.75
X151.75Y-66.0
X156.0Y-61.75
X162.675Y-62.925
X163.45Y-64.25
X165.1Y-62.4
X168.0Y-60.7
X169.3Y-60.7
T2
X132.0Y-68.5
X140.5Y-71.25
X140.5Y-72.75
X141.8Y-71.25
X141.8Y-72.75
T3
X129.6Y-57.2
X129.6Y-58.47
X130.87Y-57.2
X130.87Y-58.47
X132.14Y-57.2
X132.14Y-58.47
T4
X183.24Y-62.45
X183.24Y-64.95
X183.24Y-67.45
X196.74Y-62.45
X196.74Y-64.95
X196.74Y-67.45
T5
X170.9Y-62.75
X170.9Y-67.25
X177.4Y-62.75
X177.4Y-67.25
T6
X127.5Y-65.0
X200.0Y-65.0
T0
M30
