G04 #@! TF.GenerationSoftware,KiCad,Pcbnew,(5.1.10)-1*
G04 #@! TF.CreationDate,2021-10-05T02:57:27+03:00*
G04 #@! TF.ProjectId,led_controller_stm8,6c65645f-636f-46e7-9472-6f6c6c65725f,rev?*
G04 #@! TF.SameCoordinates,Original*
G04 #@! TF.FileFunction,Soldermask,Top*
G04 #@! TF.FilePolarity,Negative*
%FSLAX46Y46*%
G04 Gerber Fmt 4.6, Leading zero omitted, Abs format (unit mm)*
G04 Created by KiCad (PCBNEW (5.1.10)-1) date 2021-10-05 02:57:27*
%MOMM*%
%LPD*%
G01*
G04 APERTURE LIST*
%ADD10O,1.950000X1.700000*%
%ADD11C,3.500000*%
%ADD12C,2.000000*%
%ADD13R,0.900000X0.800000*%
%ADD14R,0.800000X0.900000*%
%ADD15C,1.000000*%
G04 APERTURE END LIST*
D10*
X183240000Y-62450000D03*
X183240000Y-64950000D03*
G36*
G01*
X183965000Y-68300000D02*
X182515000Y-68300000D01*
G75*
G02*
X182265000Y-68050000I0J250000D01*
G01*
X182265000Y-66850000D01*
G75*
G02*
X182515000Y-66600000I250000J0D01*
G01*
X183965000Y-66600000D01*
G75*
G02*
X184215000Y-66850000I0J-250000D01*
G01*
X184215000Y-68050000D01*
G75*
G02*
X183965000Y-68300000I-250000J0D01*
G01*
G37*
X196740000Y-62450000D03*
X196740000Y-64950000D03*
G36*
G01*
X197465000Y-68300000D02*
X196015000Y-68300000D01*
G75*
G02*
X195765000Y-68050000I0J250000D01*
G01*
X195765000Y-66850000D01*
G75*
G02*
X196015000Y-66600000I250000J0D01*
G01*
X197465000Y-66600000D01*
G75*
G02*
X197715000Y-66850000I0J-250000D01*
G01*
X197715000Y-68050000D01*
G75*
G02*
X197465000Y-68300000I-250000J0D01*
G01*
G37*
D11*
X191500000Y-65000000D03*
X136000000Y-65000000D03*
X200000000Y-65000000D03*
X127500000Y-65000000D03*
G36*
G01*
X180580000Y-56819999D02*
X180580000Y-57720001D01*
G75*
G02*
X180330001Y-57970000I-249999J0D01*
G01*
X179679999Y-57970000D01*
G75*
G02*
X179430000Y-57720001I0J249999D01*
G01*
X179430000Y-56819999D01*
G75*
G02*
X179679999Y-56570000I249999J0D01*
G01*
X180330001Y-56570000D01*
G75*
G02*
X180580000Y-56819999I0J-249999D01*
G01*
G37*
G36*
G01*
X182630000Y-56819999D02*
X182630000Y-57720001D01*
G75*
G02*
X182380001Y-57970000I-249999J0D01*
G01*
X181729999Y-57970000D01*
G75*
G02*
X181480000Y-57720001I0J249999D01*
G01*
X181480000Y-56819999D01*
G75*
G02*
X181729999Y-56570000I249999J0D01*
G01*
X182380001Y-56570000D01*
G75*
G02*
X182630000Y-56819999I0J-249999D01*
G01*
G37*
G36*
G01*
X166125000Y-62375000D02*
X166125000Y-62175000D01*
G75*
G02*
X166225000Y-62075000I100000J0D01*
G01*
X167500000Y-62075000D01*
G75*
G02*
X167600000Y-62175000I0J-100000D01*
G01*
X167600000Y-62375000D01*
G75*
G02*
X167500000Y-62475000I-100000J0D01*
G01*
X166225000Y-62475000D01*
G75*
G02*
X166125000Y-62375000I0J100000D01*
G01*
G37*
G36*
G01*
X166125000Y-63025000D02*
X166125000Y-62825000D01*
G75*
G02*
X166225000Y-62725000I100000J0D01*
G01*
X167500000Y-62725000D01*
G75*
G02*
X167600000Y-62825000I0J-100000D01*
G01*
X167600000Y-63025000D01*
G75*
G02*
X167500000Y-63125000I-100000J0D01*
G01*
X166225000Y-63125000D01*
G75*
G02*
X166125000Y-63025000I0J100000D01*
G01*
G37*
G36*
G01*
X166125000Y-63675000D02*
X166125000Y-63475000D01*
G75*
G02*
X166225000Y-63375000I100000J0D01*
G01*
X167500000Y-63375000D01*
G75*
G02*
X167600000Y-63475000I0J-100000D01*
G01*
X167600000Y-63675000D01*
G75*
G02*
X167500000Y-63775000I-100000J0D01*
G01*
X166225000Y-63775000D01*
G75*
G02*
X166125000Y-63675000I0J100000D01*
G01*
G37*
G36*
G01*
X166125000Y-64325000D02*
X166125000Y-64125000D01*
G75*
G02*
X166225000Y-64025000I100000J0D01*
G01*
X167500000Y-64025000D01*
G75*
G02*
X167600000Y-64125000I0J-100000D01*
G01*
X167600000Y-64325000D01*
G75*
G02*
X167500000Y-64425000I-100000J0D01*
G01*
X166225000Y-64425000D01*
G75*
G02*
X166125000Y-64325000I0J100000D01*
G01*
G37*
G36*
G01*
X166125000Y-64975000D02*
X166125000Y-64775000D01*
G75*
G02*
X166225000Y-64675000I100000J0D01*
G01*
X167500000Y-64675000D01*
G75*
G02*
X167600000Y-64775000I0J-100000D01*
G01*
X167600000Y-64975000D01*
G75*
G02*
X167500000Y-65075000I-100000J0D01*
G01*
X166225000Y-65075000D01*
G75*
G02*
X166125000Y-64975000I0J100000D01*
G01*
G37*
G36*
G01*
X166125000Y-65625000D02*
X166125000Y-65425000D01*
G75*
G02*
X166225000Y-65325000I100000J0D01*
G01*
X167500000Y-65325000D01*
G75*
G02*
X167600000Y-65425000I0J-100000D01*
G01*
X167600000Y-65625000D01*
G75*
G02*
X167500000Y-65725000I-100000J0D01*
G01*
X166225000Y-65725000D01*
G75*
G02*
X166125000Y-65625000I0J100000D01*
G01*
G37*
G36*
G01*
X166125000Y-66275000D02*
X166125000Y-66075000D01*
G75*
G02*
X166225000Y-65975000I100000J0D01*
G01*
X167500000Y-65975000D01*
G75*
G02*
X167600000Y-66075000I0J-100000D01*
G01*
X167600000Y-66275000D01*
G75*
G02*
X167500000Y-66375000I-100000J0D01*
G01*
X166225000Y-66375000D01*
G75*
G02*
X166125000Y-66275000I0J100000D01*
G01*
G37*
G36*
G01*
X166125000Y-66925000D02*
X166125000Y-66725000D01*
G75*
G02*
X166225000Y-66625000I100000J0D01*
G01*
X167500000Y-66625000D01*
G75*
G02*
X167600000Y-66725000I0J-100000D01*
G01*
X167600000Y-66925000D01*
G75*
G02*
X167500000Y-67025000I-100000J0D01*
G01*
X166225000Y-67025000D01*
G75*
G02*
X166125000Y-66925000I0J100000D01*
G01*
G37*
G36*
G01*
X166125000Y-67575000D02*
X166125000Y-67375000D01*
G75*
G02*
X166225000Y-67275000I100000J0D01*
G01*
X167500000Y-67275000D01*
G75*
G02*
X167600000Y-67375000I0J-100000D01*
G01*
X167600000Y-67575000D01*
G75*
G02*
X167500000Y-67675000I-100000J0D01*
G01*
X166225000Y-67675000D01*
G75*
G02*
X166125000Y-67575000I0J100000D01*
G01*
G37*
G36*
G01*
X166125000Y-68225000D02*
X166125000Y-68025000D01*
G75*
G02*
X166225000Y-67925000I100000J0D01*
G01*
X167500000Y-67925000D01*
G75*
G02*
X167600000Y-68025000I0J-100000D01*
G01*
X167600000Y-68225000D01*
G75*
G02*
X167500000Y-68325000I-100000J0D01*
G01*
X166225000Y-68325000D01*
G75*
G02*
X166125000Y-68225000I0J100000D01*
G01*
G37*
G36*
G01*
X160400000Y-68225000D02*
X160400000Y-68025000D01*
G75*
G02*
X160500000Y-67925000I100000J0D01*
G01*
X161775000Y-67925000D01*
G75*
G02*
X161875000Y-68025000I0J-100000D01*
G01*
X161875000Y-68225000D01*
G75*
G02*
X161775000Y-68325000I-100000J0D01*
G01*
X160500000Y-68325000D01*
G75*
G02*
X160400000Y-68225000I0J100000D01*
G01*
G37*
G36*
G01*
X160400000Y-67575000D02*
X160400000Y-67375000D01*
G75*
G02*
X160500000Y-67275000I100000J0D01*
G01*
X161775000Y-67275000D01*
G75*
G02*
X161875000Y-67375000I0J-100000D01*
G01*
X161875000Y-67575000D01*
G75*
G02*
X161775000Y-67675000I-100000J0D01*
G01*
X160500000Y-67675000D01*
G75*
G02*
X160400000Y-67575000I0J100000D01*
G01*
G37*
G36*
G01*
X160400000Y-66925000D02*
X160400000Y-66725000D01*
G75*
G02*
X160500000Y-66625000I100000J0D01*
G01*
X161775000Y-66625000D01*
G75*
G02*
X161875000Y-66725000I0J-100000D01*
G01*
X161875000Y-66925000D01*
G75*
G02*
X161775000Y-67025000I-100000J0D01*
G01*
X160500000Y-67025000D01*
G75*
G02*
X160400000Y-66925000I0J100000D01*
G01*
G37*
G36*
G01*
X160400000Y-66275000D02*
X160400000Y-66075000D01*
G75*
G02*
X160500000Y-65975000I100000J0D01*
G01*
X161775000Y-65975000D01*
G75*
G02*
X161875000Y-66075000I0J-100000D01*
G01*
X161875000Y-66275000D01*
G75*
G02*
X161775000Y-66375000I-100000J0D01*
G01*
X160500000Y-66375000D01*
G75*
G02*
X160400000Y-66275000I0J100000D01*
G01*
G37*
G36*
G01*
X160400000Y-65625000D02*
X160400000Y-65425000D01*
G75*
G02*
X160500000Y-65325000I100000J0D01*
G01*
X161775000Y-65325000D01*
G75*
G02*
X161875000Y-65425000I0J-100000D01*
G01*
X161875000Y-65625000D01*
G75*
G02*
X161775000Y-65725000I-100000J0D01*
G01*
X160500000Y-65725000D01*
G75*
G02*
X160400000Y-65625000I0J100000D01*
G01*
G37*
G36*
G01*
X160400000Y-64975000D02*
X160400000Y-64775000D01*
G75*
G02*
X160500000Y-64675000I100000J0D01*
G01*
X161775000Y-64675000D01*
G75*
G02*
X161875000Y-64775000I0J-100000D01*
G01*
X161875000Y-64975000D01*
G75*
G02*
X161775000Y-65075000I-100000J0D01*
G01*
X160500000Y-65075000D01*
G75*
G02*
X160400000Y-64975000I0J100000D01*
G01*
G37*
G36*
G01*
X160400000Y-64325000D02*
X160400000Y-64125000D01*
G75*
G02*
X160500000Y-64025000I100000J0D01*
G01*
X161775000Y-64025000D01*
G75*
G02*
X161875000Y-64125000I0J-100000D01*
G01*
X161875000Y-64325000D01*
G75*
G02*
X161775000Y-64425000I-100000J0D01*
G01*
X160500000Y-64425000D01*
G75*
G02*
X160400000Y-64325000I0J100000D01*
G01*
G37*
G36*
G01*
X160400000Y-63675000D02*
X160400000Y-63475000D01*
G75*
G02*
X160500000Y-63375000I100000J0D01*
G01*
X161775000Y-63375000D01*
G75*
G02*
X161875000Y-63475000I0J-100000D01*
G01*
X161875000Y-63675000D01*
G75*
G02*
X161775000Y-63775000I-100000J0D01*
G01*
X160500000Y-63775000D01*
G75*
G02*
X160400000Y-63675000I0J100000D01*
G01*
G37*
G36*
G01*
X160400000Y-63025000D02*
X160400000Y-62825000D01*
G75*
G02*
X160500000Y-62725000I100000J0D01*
G01*
X161775000Y-62725000D01*
G75*
G02*
X161875000Y-62825000I0J-100000D01*
G01*
X161875000Y-63025000D01*
G75*
G02*
X161775000Y-63125000I-100000J0D01*
G01*
X160500000Y-63125000D01*
G75*
G02*
X160400000Y-63025000I0J100000D01*
G01*
G37*
G36*
G01*
X160400000Y-62375000D02*
X160400000Y-62175000D01*
G75*
G02*
X160500000Y-62075000I100000J0D01*
G01*
X161775000Y-62075000D01*
G75*
G02*
X161875000Y-62175000I0J-100000D01*
G01*
X161875000Y-62375000D01*
G75*
G02*
X161775000Y-62475000I-100000J0D01*
G01*
X160500000Y-62475000D01*
G75*
G02*
X160400000Y-62375000I0J100000D01*
G01*
G37*
D12*
X170900000Y-67250000D03*
X170900000Y-62750000D03*
X177400000Y-67250000D03*
X177400000Y-62750000D03*
G36*
G01*
X144799999Y-72950000D02*
X145700001Y-72950000D01*
G75*
G02*
X145950000Y-73199999I0J-249999D01*
G01*
X145950000Y-73850001D01*
G75*
G02*
X145700001Y-74100000I-249999J0D01*
G01*
X144799999Y-74100000D01*
G75*
G02*
X144550000Y-73850001I0J249999D01*
G01*
X144550000Y-73199999D01*
G75*
G02*
X144799999Y-72950000I249999J0D01*
G01*
G37*
G36*
G01*
X144799999Y-70900000D02*
X145700001Y-70900000D01*
G75*
G02*
X145950000Y-71149999I0J-249999D01*
G01*
X145950000Y-71800001D01*
G75*
G02*
X145700001Y-72050000I-249999J0D01*
G01*
X144799999Y-72050000D01*
G75*
G02*
X144550000Y-71800001I0J249999D01*
G01*
X144550000Y-71149999D01*
G75*
G02*
X144799999Y-70900000I249999J0D01*
G01*
G37*
G36*
G01*
X152049999Y-68950000D02*
X152950001Y-68950000D01*
G75*
G02*
X153200000Y-69199999I0J-249999D01*
G01*
X153200000Y-69850001D01*
G75*
G02*
X152950001Y-70100000I-249999J0D01*
G01*
X152049999Y-70100000D01*
G75*
G02*
X151800000Y-69850001I0J249999D01*
G01*
X151800000Y-69199999D01*
G75*
G02*
X152049999Y-68950000I249999J0D01*
G01*
G37*
G36*
G01*
X152049999Y-66900000D02*
X152950001Y-66900000D01*
G75*
G02*
X153200000Y-67149999I0J-249999D01*
G01*
X153200000Y-67800001D01*
G75*
G02*
X152950001Y-68050000I-249999J0D01*
G01*
X152049999Y-68050000D01*
G75*
G02*
X151800000Y-67800001I0J249999D01*
G01*
X151800000Y-67149999D01*
G75*
G02*
X152049999Y-66900000I249999J0D01*
G01*
G37*
G36*
G01*
X137749999Y-71250000D02*
X138650001Y-71250000D01*
G75*
G02*
X138900000Y-71499999I0J-249999D01*
G01*
X138900000Y-72150001D01*
G75*
G02*
X138650001Y-72400000I-249999J0D01*
G01*
X137749999Y-72400000D01*
G75*
G02*
X137500000Y-72150001I0J249999D01*
G01*
X137500000Y-71499999D01*
G75*
G02*
X137749999Y-71250000I249999J0D01*
G01*
G37*
G36*
G01*
X137749999Y-69200000D02*
X138650001Y-69200000D01*
G75*
G02*
X138900000Y-69449999I0J-249999D01*
G01*
X138900000Y-70100001D01*
G75*
G02*
X138650001Y-70350000I-249999J0D01*
G01*
X137749999Y-70350000D01*
G75*
G02*
X137500000Y-70100001I0J249999D01*
G01*
X137500000Y-69449999D01*
G75*
G02*
X137749999Y-69200000I249999J0D01*
G01*
G37*
G36*
G01*
X150200001Y-61300000D02*
X149299999Y-61300000D01*
G75*
G02*
X149050000Y-61050001I0J249999D01*
G01*
X149050000Y-60399999D01*
G75*
G02*
X149299999Y-60150000I249999J0D01*
G01*
X150200001Y-60150000D01*
G75*
G02*
X150450000Y-60399999I0J-249999D01*
G01*
X150450000Y-61050001D01*
G75*
G02*
X150200001Y-61300000I-249999J0D01*
G01*
G37*
G36*
G01*
X150200001Y-63350000D02*
X149299999Y-63350000D01*
G75*
G02*
X149050000Y-63100001I0J249999D01*
G01*
X149050000Y-62449999D01*
G75*
G02*
X149299999Y-62200000I249999J0D01*
G01*
X150200001Y-62200000D01*
G75*
G02*
X150450000Y-62449999I0J-249999D01*
G01*
X150450000Y-63100001D01*
G75*
G02*
X150200001Y-63350000I-249999J0D01*
G01*
G37*
G36*
G01*
X148700000Y-66950001D02*
X148700000Y-66049999D01*
G75*
G02*
X148949999Y-65800000I249999J0D01*
G01*
X149600001Y-65800000D01*
G75*
G02*
X149850000Y-66049999I0J-249999D01*
G01*
X149850000Y-66950001D01*
G75*
G02*
X149600001Y-67200000I-249999J0D01*
G01*
X148949999Y-67200000D01*
G75*
G02*
X148700000Y-66950001I0J249999D01*
G01*
G37*
G36*
G01*
X146650000Y-66950001D02*
X146650000Y-66049999D01*
G75*
G02*
X146899999Y-65800000I249999J0D01*
G01*
X147550001Y-65800000D01*
G75*
G02*
X147800000Y-66049999I0J-249999D01*
G01*
X147800000Y-66950001D01*
G75*
G02*
X147550001Y-67200000I-249999J0D01*
G01*
X146899999Y-67200000D01*
G75*
G02*
X146650000Y-66950001I0J249999D01*
G01*
G37*
G36*
G01*
X142450000Y-65950001D02*
X142450000Y-65049999D01*
G75*
G02*
X142699999Y-64800000I249999J0D01*
G01*
X143350001Y-64800000D01*
G75*
G02*
X143600000Y-65049999I0J-249999D01*
G01*
X143600000Y-65950001D01*
G75*
G02*
X143350001Y-66200000I-249999J0D01*
G01*
X142699999Y-66200000D01*
G75*
G02*
X142450000Y-65950001I0J249999D01*
G01*
G37*
G36*
G01*
X140400000Y-65950001D02*
X140400000Y-65049999D01*
G75*
G02*
X140649999Y-64800000I249999J0D01*
G01*
X141300001Y-64800000D01*
G75*
G02*
X141550000Y-65049999I0J-249999D01*
G01*
X141550000Y-65950001D01*
G75*
G02*
X141300001Y-66200000I-249999J0D01*
G01*
X140649999Y-66200000D01*
G75*
G02*
X140400000Y-65950001I0J249999D01*
G01*
G37*
D13*
X154500000Y-61750000D03*
X152500000Y-62700000D03*
X152500000Y-60800000D03*
X145750000Y-61750000D03*
X147750000Y-60800000D03*
X147750000Y-62700000D03*
D14*
X142000000Y-69500000D03*
X141050000Y-67500000D03*
X142950000Y-67500000D03*
X140800000Y-59000000D03*
X141750000Y-61000000D03*
X139850000Y-61000000D03*
D15*
X132140000Y-57200000D03*
X132140000Y-58470000D03*
X130870000Y-57200000D03*
X130870000Y-58470000D03*
X129600000Y-57200000D03*
X129600000Y-58470000D03*
D13*
X149400000Y-71200000D03*
X147400000Y-72150000D03*
X147400000Y-70250000D03*
G36*
G01*
X159350001Y-64850000D02*
X158449999Y-64850000D01*
G75*
G02*
X158200000Y-64600001I0J249999D01*
G01*
X158200000Y-63949999D01*
G75*
G02*
X158449999Y-63700000I249999J0D01*
G01*
X159350001Y-63700000D01*
G75*
G02*
X159600000Y-63949999I0J-249999D01*
G01*
X159600000Y-64600001D01*
G75*
G02*
X159350001Y-64850000I-249999J0D01*
G01*
G37*
G36*
G01*
X159350001Y-66900000D02*
X158449999Y-66900000D01*
G75*
G02*
X158200000Y-66650001I0J249999D01*
G01*
X158200000Y-65999999D01*
G75*
G02*
X158449999Y-65750000I249999J0D01*
G01*
X159350001Y-65750000D01*
G75*
G02*
X159600000Y-65999999I0J-249999D01*
G01*
X159600000Y-66650001D01*
G75*
G02*
X159350001Y-66900000I-249999J0D01*
G01*
G37*
G36*
G01*
X157400001Y-68050000D02*
X156499999Y-68050000D01*
G75*
G02*
X156250000Y-67800001I0J249999D01*
G01*
X156250000Y-67149999D01*
G75*
G02*
X156499999Y-66900000I249999J0D01*
G01*
X157400001Y-66900000D01*
G75*
G02*
X157650000Y-67149999I0J-249999D01*
G01*
X157650000Y-67800001D01*
G75*
G02*
X157400001Y-68050000I-249999J0D01*
G01*
G37*
G36*
G01*
X157400001Y-70100000D02*
X156499999Y-70100000D01*
G75*
G02*
X156250000Y-69850001I0J249999D01*
G01*
X156250000Y-69199999D01*
G75*
G02*
X156499999Y-68950000I249999J0D01*
G01*
X157400001Y-68950000D01*
G75*
G02*
X157650000Y-69199999I0J-249999D01*
G01*
X157650000Y-69850001D01*
G75*
G02*
X157400001Y-70100000I-249999J0D01*
G01*
G37*
G36*
G01*
X155275001Y-68050000D02*
X154374999Y-68050000D01*
G75*
G02*
X154125000Y-67800001I0J249999D01*
G01*
X154125000Y-67149999D01*
G75*
G02*
X154374999Y-66900000I249999J0D01*
G01*
X155275001Y-66900000D01*
G75*
G02*
X155525000Y-67149999I0J-249999D01*
G01*
X155525000Y-67800001D01*
G75*
G02*
X155275001Y-68050000I-249999J0D01*
G01*
G37*
G36*
G01*
X155275001Y-70100000D02*
X154374999Y-70100000D01*
G75*
G02*
X154125000Y-69850001I0J249999D01*
G01*
X154125000Y-69199999D01*
G75*
G02*
X154374999Y-68950000I249999J0D01*
G01*
X155275001Y-68950000D01*
G75*
G02*
X155525000Y-69199999I0J-249999D01*
G01*
X155525000Y-69850001D01*
G75*
G02*
X155275001Y-70100000I-249999J0D01*
G01*
G37*
M02*
