G04 #@! TF.GenerationSoftware,KiCad,Pcbnew,(5.1.10)-1*
G04 #@! TF.CreationDate,2021-10-05T02:57:27+03:00*
G04 #@! TF.ProjectId,led_controller_stm8,6c65645f-636f-46e7-9472-6f6c6c65725f,rev?*
G04 #@! TF.SameCoordinates,Original*
G04 #@! TF.FileFunction,Copper,L1,Top*
G04 #@! TF.FilePolarity,Positive*
%FSLAX46Y46*%
G04 Gerber Fmt 4.6, Leading zero omitted, Abs format (unit mm)*
G04 Created by KiCad (PCBNEW (5.1.10)-1) date 2021-10-05 02:57:27*
%MOMM*%
%LPD*%
G01*
G04 APERTURE LIST*
G04 #@! TA.AperFunction,NonConductor*
%ADD10C,0.150000*%
G04 #@! TD*
G04 #@! TA.AperFunction,ComponentPad*
%ADD11O,1.950000X1.700000*%
G04 #@! TD*
G04 #@! TA.AperFunction,ComponentPad*
%ADD12C,3.500000*%
G04 #@! TD*
G04 #@! TA.AperFunction,ComponentPad*
%ADD13C,2.000000*%
G04 #@! TD*
G04 #@! TA.AperFunction,SMDPad,CuDef*
%ADD14R,0.900000X0.800000*%
G04 #@! TD*
G04 #@! TA.AperFunction,SMDPad,CuDef*
%ADD15R,0.800000X0.900000*%
G04 #@! TD*
G04 #@! TA.AperFunction,ComponentPad*
%ADD16C,1.000000*%
G04 #@! TD*
G04 #@! TA.AperFunction,ViaPad*
%ADD17C,1.000000*%
G04 #@! TD*
G04 #@! TA.AperFunction,ViaPad*
%ADD18C,0.800000*%
G04 #@! TD*
G04 #@! TA.AperFunction,Conductor*
%ADD19C,0.500000*%
G04 #@! TD*
G04 #@! TA.AperFunction,Conductor*
%ADD20C,0.250000*%
G04 #@! TD*
G04 #@! TA.AperFunction,Conductor*
%ADD21C,1.000000*%
G04 #@! TD*
G04 #@! TA.AperFunction,Conductor*
%ADD22C,2.000000*%
G04 #@! TD*
G04 #@! TA.AperFunction,Conductor*
%ADD23C,1.500000*%
G04 #@! TD*
G04 #@! TA.AperFunction,Conductor*
%ADD24C,0.254000*%
G04 #@! TD*
G04 #@! TA.AperFunction,Conductor*
%ADD25C,0.100000*%
G04 #@! TD*
G04 APERTURE END LIST*
D10*
X158797619Y-72452380D02*
X158702380Y-72404761D01*
X158654761Y-72309523D01*
X158654761Y-71452380D01*
X159559523Y-72404761D02*
X159464285Y-72452380D01*
X159273809Y-72452380D01*
X159178571Y-72404761D01*
X159130952Y-72309523D01*
X159130952Y-71928571D01*
X159178571Y-71833333D01*
X159273809Y-71785714D01*
X159464285Y-71785714D01*
X159559523Y-71833333D01*
X159607142Y-71928571D01*
X159607142Y-72023809D01*
X159130952Y-72119047D01*
X160464285Y-72452380D02*
X160464285Y-71452380D01*
X160464285Y-72404761D02*
X160369047Y-72452380D01*
X160178571Y-72452380D01*
X160083333Y-72404761D01*
X160035714Y-72357142D01*
X159988095Y-72261904D01*
X159988095Y-71976190D01*
X160035714Y-71880952D01*
X160083333Y-71833333D01*
X160178571Y-71785714D01*
X160369047Y-71785714D01*
X160464285Y-71833333D01*
X160702380Y-72547619D02*
X161464285Y-72547619D01*
X162130952Y-72404761D02*
X162035714Y-72452380D01*
X161845238Y-72452380D01*
X161750000Y-72404761D01*
X161702380Y-72357142D01*
X161654761Y-72261904D01*
X161654761Y-71976190D01*
X161702380Y-71880952D01*
X161750000Y-71833333D01*
X161845238Y-71785714D01*
X162035714Y-71785714D01*
X162130952Y-71833333D01*
X162702380Y-72452380D02*
X162607142Y-72404761D01*
X162559523Y-72357142D01*
X162511904Y-72261904D01*
X162511904Y-71976190D01*
X162559523Y-71880952D01*
X162607142Y-71833333D01*
X162702380Y-71785714D01*
X162845238Y-71785714D01*
X162940476Y-71833333D01*
X162988095Y-71880952D01*
X163035714Y-71976190D01*
X163035714Y-72261904D01*
X162988095Y-72357142D01*
X162940476Y-72404761D01*
X162845238Y-72452380D01*
X162702380Y-72452380D01*
X163464285Y-71785714D02*
X163464285Y-72452380D01*
X163464285Y-71880952D02*
X163511904Y-71833333D01*
X163607142Y-71785714D01*
X163750000Y-71785714D01*
X163845238Y-71833333D01*
X163892857Y-71928571D01*
X163892857Y-72452380D01*
X164226190Y-71785714D02*
X164607142Y-71785714D01*
X164369047Y-71452380D02*
X164369047Y-72309523D01*
X164416666Y-72404761D01*
X164511904Y-72452380D01*
X164607142Y-72452380D01*
X164940476Y-72452380D02*
X164940476Y-71785714D01*
X164940476Y-71976190D02*
X164988095Y-71880952D01*
X165035714Y-71833333D01*
X165130952Y-71785714D01*
X165226190Y-71785714D01*
X165702380Y-72452380D02*
X165607142Y-72404761D01*
X165559523Y-72357142D01*
X165511904Y-72261904D01*
X165511904Y-71976190D01*
X165559523Y-71880952D01*
X165607142Y-71833333D01*
X165702380Y-71785714D01*
X165845238Y-71785714D01*
X165940476Y-71833333D01*
X165988095Y-71880952D01*
X166035714Y-71976190D01*
X166035714Y-72261904D01*
X165988095Y-72357142D01*
X165940476Y-72404761D01*
X165845238Y-72452380D01*
X165702380Y-72452380D01*
X166607142Y-72452380D02*
X166511904Y-72404761D01*
X166464285Y-72309523D01*
X166464285Y-71452380D01*
X167130952Y-72452380D02*
X167035714Y-72404761D01*
X166988095Y-72309523D01*
X166988095Y-71452380D01*
X167892857Y-72404761D02*
X167797619Y-72452380D01*
X167607142Y-72452380D01*
X167511904Y-72404761D01*
X167464285Y-72309523D01*
X167464285Y-71928571D01*
X167511904Y-71833333D01*
X167607142Y-71785714D01*
X167797619Y-71785714D01*
X167892857Y-71833333D01*
X167940476Y-71928571D01*
X167940476Y-72023809D01*
X167464285Y-72119047D01*
X168369047Y-72452380D02*
X168369047Y-71785714D01*
X168369047Y-71976190D02*
X168416666Y-71880952D01*
X168464285Y-71833333D01*
X168559523Y-71785714D01*
X168654761Y-71785714D01*
X168750000Y-72547619D02*
X169511904Y-72547619D01*
X169702380Y-72404761D02*
X169797619Y-72452380D01*
X169988095Y-72452380D01*
X170083333Y-72404761D01*
X170130952Y-72309523D01*
X170130952Y-72261904D01*
X170083333Y-72166666D01*
X169988095Y-72119047D01*
X169845238Y-72119047D01*
X169750000Y-72071428D01*
X169702380Y-71976190D01*
X169702380Y-71928571D01*
X169750000Y-71833333D01*
X169845238Y-71785714D01*
X169988095Y-71785714D01*
X170083333Y-71833333D01*
X170416666Y-71785714D02*
X170797619Y-71785714D01*
X170559523Y-71452380D02*
X170559523Y-72309523D01*
X170607142Y-72404761D01*
X170702380Y-72452380D01*
X170797619Y-72452380D01*
X171130952Y-72452380D02*
X171130952Y-71785714D01*
X171130952Y-71880952D02*
X171178571Y-71833333D01*
X171273809Y-71785714D01*
X171416666Y-71785714D01*
X171511904Y-71833333D01*
X171559523Y-71928571D01*
X171559523Y-72452380D01*
X171559523Y-71928571D02*
X171607142Y-71833333D01*
X171702380Y-71785714D01*
X171845238Y-71785714D01*
X171940476Y-71833333D01*
X171988095Y-71928571D01*
X171988095Y-72452380D01*
X172607142Y-71880952D02*
X172511904Y-71833333D01*
X172464285Y-71785714D01*
X172416666Y-71690476D01*
X172416666Y-71642857D01*
X172464285Y-71547619D01*
X172511904Y-71500000D01*
X172607142Y-71452380D01*
X172797619Y-71452380D01*
X172892857Y-71500000D01*
X172940476Y-71547619D01*
X172988095Y-71642857D01*
X172988095Y-71690476D01*
X172940476Y-71785714D01*
X172892857Y-71833333D01*
X172797619Y-71880952D01*
X172607142Y-71880952D01*
X172511904Y-71928571D01*
X172464285Y-71976190D01*
X172416666Y-72071428D01*
X172416666Y-72261904D01*
X172464285Y-72357142D01*
X172511904Y-72404761D01*
X172607142Y-72452380D01*
X172797619Y-72452380D01*
X172892857Y-72404761D01*
X172940476Y-72357142D01*
X172988095Y-72261904D01*
X172988095Y-72071428D01*
X172940476Y-71976190D01*
X172892857Y-71928571D01*
X172797619Y-71880952D01*
X174083333Y-71785714D02*
X174321428Y-72452380D01*
X174559523Y-71785714D01*
X175464285Y-72452380D02*
X174892857Y-72452380D01*
X175178571Y-72452380D02*
X175178571Y-71452380D01*
X175083333Y-71595238D01*
X174988095Y-71690476D01*
X174892857Y-71738095D01*
X175892857Y-72357142D02*
X175940476Y-72404761D01*
X175892857Y-72452380D01*
X175845238Y-72404761D01*
X175892857Y-72357142D01*
X175892857Y-72452380D01*
X176559523Y-71452380D02*
X176654761Y-71452380D01*
X176750000Y-71500000D01*
X176797619Y-71547619D01*
X176845238Y-71642857D01*
X176892857Y-71833333D01*
X176892857Y-72071428D01*
X176845238Y-72261904D01*
X176797619Y-72357142D01*
X176750000Y-72404761D01*
X176654761Y-72452380D01*
X176559523Y-72452380D01*
X176464285Y-72404761D01*
X176416666Y-72357142D01*
X176369047Y-72261904D01*
X176321428Y-72071428D01*
X176321428Y-71833333D01*
X176369047Y-71642857D01*
X176416666Y-71547619D01*
X176464285Y-71500000D01*
X176559523Y-71452380D01*
D11*
X183240000Y-62450000D03*
X183240000Y-64950000D03*
G04 #@! TA.AperFunction,ComponentPad*
G36*
G01*
X183965000Y-68300000D02*
X182515000Y-68300000D01*
G75*
G02*
X182265000Y-68050000I0J250000D01*
G01*
X182265000Y-66850000D01*
G75*
G02*
X182515000Y-66600000I250000J0D01*
G01*
X183965000Y-66600000D01*
G75*
G02*
X184215000Y-66850000I0J-250000D01*
G01*
X184215000Y-68050000D01*
G75*
G02*
X183965000Y-68300000I-250000J0D01*
G01*
G37*
G04 #@! TD.AperFunction*
X196740000Y-62450000D03*
X196740000Y-64950000D03*
G04 #@! TA.AperFunction,ComponentPad*
G36*
G01*
X197465000Y-68300000D02*
X196015000Y-68300000D01*
G75*
G02*
X195765000Y-68050000I0J250000D01*
G01*
X195765000Y-66850000D01*
G75*
G02*
X196015000Y-66600000I250000J0D01*
G01*
X197465000Y-66600000D01*
G75*
G02*
X197715000Y-66850000I0J-250000D01*
G01*
X197715000Y-68050000D01*
G75*
G02*
X197465000Y-68300000I-250000J0D01*
G01*
G37*
G04 #@! TD.AperFunction*
D12*
X200000000Y-65000000D03*
X127500000Y-65000000D03*
G04 #@! TA.AperFunction,SMDPad,CuDef*
G36*
G01*
X180580000Y-56819999D02*
X180580000Y-57720001D01*
G75*
G02*
X180330001Y-57970000I-249999J0D01*
G01*
X179679999Y-57970000D01*
G75*
G02*
X179430000Y-57720001I0J249999D01*
G01*
X179430000Y-56819999D01*
G75*
G02*
X179679999Y-56570000I249999J0D01*
G01*
X180330001Y-56570000D01*
G75*
G02*
X180580000Y-56819999I0J-249999D01*
G01*
G37*
G04 #@! TD.AperFunction*
G04 #@! TA.AperFunction,SMDPad,CuDef*
G36*
G01*
X182630000Y-56819999D02*
X182630000Y-57720001D01*
G75*
G02*
X182380001Y-57970000I-249999J0D01*
G01*
X181729999Y-57970000D01*
G75*
G02*
X181480000Y-57720001I0J249999D01*
G01*
X181480000Y-56819999D01*
G75*
G02*
X181729999Y-56570000I249999J0D01*
G01*
X182380001Y-56570000D01*
G75*
G02*
X182630000Y-56819999I0J-249999D01*
G01*
G37*
G04 #@! TD.AperFunction*
G04 #@! TA.AperFunction,SMDPad,CuDef*
G36*
G01*
X166125000Y-62375000D02*
X166125000Y-62175000D01*
G75*
G02*
X166225000Y-62075000I100000J0D01*
G01*
X167500000Y-62075000D01*
G75*
G02*
X167600000Y-62175000I0J-100000D01*
G01*
X167600000Y-62375000D01*
G75*
G02*
X167500000Y-62475000I-100000J0D01*
G01*
X166225000Y-62475000D01*
G75*
G02*
X166125000Y-62375000I0J100000D01*
G01*
G37*
G04 #@! TD.AperFunction*
G04 #@! TA.AperFunction,SMDPad,CuDef*
G36*
G01*
X166125000Y-63025000D02*
X166125000Y-62825000D01*
G75*
G02*
X166225000Y-62725000I100000J0D01*
G01*
X167500000Y-62725000D01*
G75*
G02*
X167600000Y-62825000I0J-100000D01*
G01*
X167600000Y-63025000D01*
G75*
G02*
X167500000Y-63125000I-100000J0D01*
G01*
X166225000Y-63125000D01*
G75*
G02*
X166125000Y-63025000I0J100000D01*
G01*
G37*
G04 #@! TD.AperFunction*
G04 #@! TA.AperFunction,SMDPad,CuDef*
G36*
G01*
X166125000Y-63675000D02*
X166125000Y-63475000D01*
G75*
G02*
X166225000Y-63375000I100000J0D01*
G01*
X167500000Y-63375000D01*
G75*
G02*
X167600000Y-63475000I0J-100000D01*
G01*
X167600000Y-63675000D01*
G75*
G02*
X167500000Y-63775000I-100000J0D01*
G01*
X166225000Y-63775000D01*
G75*
G02*
X166125000Y-63675000I0J100000D01*
G01*
G37*
G04 #@! TD.AperFunction*
G04 #@! TA.AperFunction,SMDPad,CuDef*
G36*
G01*
X166125000Y-64325000D02*
X166125000Y-64125000D01*
G75*
G02*
X166225000Y-64025000I100000J0D01*
G01*
X167500000Y-64025000D01*
G75*
G02*
X167600000Y-64125000I0J-100000D01*
G01*
X167600000Y-64325000D01*
G75*
G02*
X167500000Y-64425000I-100000J0D01*
G01*
X166225000Y-64425000D01*
G75*
G02*
X166125000Y-64325000I0J100000D01*
G01*
G37*
G04 #@! TD.AperFunction*
G04 #@! TA.AperFunction,SMDPad,CuDef*
G36*
G01*
X166125000Y-64975000D02*
X166125000Y-64775000D01*
G75*
G02*
X166225000Y-64675000I100000J0D01*
G01*
X167500000Y-64675000D01*
G75*
G02*
X167600000Y-64775000I0J-100000D01*
G01*
X167600000Y-64975000D01*
G75*
G02*
X167500000Y-65075000I-100000J0D01*
G01*
X166225000Y-65075000D01*
G75*
G02*
X166125000Y-64975000I0J100000D01*
G01*
G37*
G04 #@! TD.AperFunction*
G04 #@! TA.AperFunction,SMDPad,CuDef*
G36*
G01*
X166125000Y-65625000D02*
X166125000Y-65425000D01*
G75*
G02*
X166225000Y-65325000I100000J0D01*
G01*
X167500000Y-65325000D01*
G75*
G02*
X167600000Y-65425000I0J-100000D01*
G01*
X167600000Y-65625000D01*
G75*
G02*
X167500000Y-65725000I-100000J0D01*
G01*
X166225000Y-65725000D01*
G75*
G02*
X166125000Y-65625000I0J100000D01*
G01*
G37*
G04 #@! TD.AperFunction*
G04 #@! TA.AperFunction,SMDPad,CuDef*
G36*
G01*
X166125000Y-66275000D02*
X166125000Y-66075000D01*
G75*
G02*
X166225000Y-65975000I100000J0D01*
G01*
X167500000Y-65975000D01*
G75*
G02*
X167600000Y-66075000I0J-100000D01*
G01*
X167600000Y-66275000D01*
G75*
G02*
X167500000Y-66375000I-100000J0D01*
G01*
X166225000Y-66375000D01*
G75*
G02*
X166125000Y-66275000I0J100000D01*
G01*
G37*
G04 #@! TD.AperFunction*
G04 #@! TA.AperFunction,SMDPad,CuDef*
G36*
G01*
X166125000Y-66925000D02*
X166125000Y-66725000D01*
G75*
G02*
X166225000Y-66625000I100000J0D01*
G01*
X167500000Y-66625000D01*
G75*
G02*
X167600000Y-66725000I0J-100000D01*
G01*
X167600000Y-66925000D01*
G75*
G02*
X167500000Y-67025000I-100000J0D01*
G01*
X166225000Y-67025000D01*
G75*
G02*
X166125000Y-66925000I0J100000D01*
G01*
G37*
G04 #@! TD.AperFunction*
G04 #@! TA.AperFunction,SMDPad,CuDef*
G36*
G01*
X166125000Y-67575000D02*
X166125000Y-67375000D01*
G75*
G02*
X166225000Y-67275000I100000J0D01*
G01*
X167500000Y-67275000D01*
G75*
G02*
X167600000Y-67375000I0J-100000D01*
G01*
X167600000Y-67575000D01*
G75*
G02*
X167500000Y-67675000I-100000J0D01*
G01*
X166225000Y-67675000D01*
G75*
G02*
X166125000Y-67575000I0J100000D01*
G01*
G37*
G04 #@! TD.AperFunction*
G04 #@! TA.AperFunction,SMDPad,CuDef*
G36*
G01*
X166125000Y-68225000D02*
X166125000Y-68025000D01*
G75*
G02*
X166225000Y-67925000I100000J0D01*
G01*
X167500000Y-67925000D01*
G75*
G02*
X167600000Y-68025000I0J-100000D01*
G01*
X167600000Y-68225000D01*
G75*
G02*
X167500000Y-68325000I-100000J0D01*
G01*
X166225000Y-68325000D01*
G75*
G02*
X166125000Y-68225000I0J100000D01*
G01*
G37*
G04 #@! TD.AperFunction*
G04 #@! TA.AperFunction,SMDPad,CuDef*
G36*
G01*
X160400000Y-68225000D02*
X160400000Y-68025000D01*
G75*
G02*
X160500000Y-67925000I100000J0D01*
G01*
X161775000Y-67925000D01*
G75*
G02*
X161875000Y-68025000I0J-100000D01*
G01*
X161875000Y-68225000D01*
G75*
G02*
X161775000Y-68325000I-100000J0D01*
G01*
X160500000Y-68325000D01*
G75*
G02*
X160400000Y-68225000I0J100000D01*
G01*
G37*
G04 #@! TD.AperFunction*
G04 #@! TA.AperFunction,SMDPad,CuDef*
G36*
G01*
X160400000Y-67575000D02*
X160400000Y-67375000D01*
G75*
G02*
X160500000Y-67275000I100000J0D01*
G01*
X161775000Y-67275000D01*
G75*
G02*
X161875000Y-67375000I0J-100000D01*
G01*
X161875000Y-67575000D01*
G75*
G02*
X161775000Y-67675000I-100000J0D01*
G01*
X160500000Y-67675000D01*
G75*
G02*
X160400000Y-67575000I0J100000D01*
G01*
G37*
G04 #@! TD.AperFunction*
G04 #@! TA.AperFunction,SMDPad,CuDef*
G36*
G01*
X160400000Y-66925000D02*
X160400000Y-66725000D01*
G75*
G02*
X160500000Y-66625000I100000J0D01*
G01*
X161775000Y-66625000D01*
G75*
G02*
X161875000Y-66725000I0J-100000D01*
G01*
X161875000Y-66925000D01*
G75*
G02*
X161775000Y-67025000I-100000J0D01*
G01*
X160500000Y-67025000D01*
G75*
G02*
X160400000Y-66925000I0J100000D01*
G01*
G37*
G04 #@! TD.AperFunction*
G04 #@! TA.AperFunction,SMDPad,CuDef*
G36*
G01*
X160400000Y-66275000D02*
X160400000Y-66075000D01*
G75*
G02*
X160500000Y-65975000I100000J0D01*
G01*
X161775000Y-65975000D01*
G75*
G02*
X161875000Y-66075000I0J-100000D01*
G01*
X161875000Y-66275000D01*
G75*
G02*
X161775000Y-66375000I-100000J0D01*
G01*
X160500000Y-66375000D01*
G75*
G02*
X160400000Y-66275000I0J100000D01*
G01*
G37*
G04 #@! TD.AperFunction*
G04 #@! TA.AperFunction,SMDPad,CuDef*
G36*
G01*
X160400000Y-65625000D02*
X160400000Y-65425000D01*
G75*
G02*
X160500000Y-65325000I100000J0D01*
G01*
X161775000Y-65325000D01*
G75*
G02*
X161875000Y-65425000I0J-100000D01*
G01*
X161875000Y-65625000D01*
G75*
G02*
X161775000Y-65725000I-100000J0D01*
G01*
X160500000Y-65725000D01*
G75*
G02*
X160400000Y-65625000I0J100000D01*
G01*
G37*
G04 #@! TD.AperFunction*
G04 #@! TA.AperFunction,SMDPad,CuDef*
G36*
G01*
X160400000Y-64975000D02*
X160400000Y-64775000D01*
G75*
G02*
X160500000Y-64675000I100000J0D01*
G01*
X161775000Y-64675000D01*
G75*
G02*
X161875000Y-64775000I0J-100000D01*
G01*
X161875000Y-64975000D01*
G75*
G02*
X161775000Y-65075000I-100000J0D01*
G01*
X160500000Y-65075000D01*
G75*
G02*
X160400000Y-64975000I0J100000D01*
G01*
G37*
G04 #@! TD.AperFunction*
G04 #@! TA.AperFunction,SMDPad,CuDef*
G36*
G01*
X160400000Y-64325000D02*
X160400000Y-64125000D01*
G75*
G02*
X160500000Y-64025000I100000J0D01*
G01*
X161775000Y-64025000D01*
G75*
G02*
X161875000Y-64125000I0J-100000D01*
G01*
X161875000Y-64325000D01*
G75*
G02*
X161775000Y-64425000I-100000J0D01*
G01*
X160500000Y-64425000D01*
G75*
G02*
X160400000Y-64325000I0J100000D01*
G01*
G37*
G04 #@! TD.AperFunction*
G04 #@! TA.AperFunction,SMDPad,CuDef*
G36*
G01*
X160400000Y-63675000D02*
X160400000Y-63475000D01*
G75*
G02*
X160500000Y-63375000I100000J0D01*
G01*
X161775000Y-63375000D01*
G75*
G02*
X161875000Y-63475000I0J-100000D01*
G01*
X161875000Y-63675000D01*
G75*
G02*
X161775000Y-63775000I-100000J0D01*
G01*
X160500000Y-63775000D01*
G75*
G02*
X160400000Y-63675000I0J100000D01*
G01*
G37*
G04 #@! TD.AperFunction*
G04 #@! TA.AperFunction,SMDPad,CuDef*
G36*
G01*
X160400000Y-63025000D02*
X160400000Y-62825000D01*
G75*
G02*
X160500000Y-62725000I100000J0D01*
G01*
X161775000Y-62725000D01*
G75*
G02*
X161875000Y-62825000I0J-100000D01*
G01*
X161875000Y-63025000D01*
G75*
G02*
X161775000Y-63125000I-100000J0D01*
G01*
X160500000Y-63125000D01*
G75*
G02*
X160400000Y-63025000I0J100000D01*
G01*
G37*
G04 #@! TD.AperFunction*
G04 #@! TA.AperFunction,SMDPad,CuDef*
G36*
G01*
X160400000Y-62375000D02*
X160400000Y-62175000D01*
G75*
G02*
X160500000Y-62075000I100000J0D01*
G01*
X161775000Y-62075000D01*
G75*
G02*
X161875000Y-62175000I0J-100000D01*
G01*
X161875000Y-62375000D01*
G75*
G02*
X161775000Y-62475000I-100000J0D01*
G01*
X160500000Y-62475000D01*
G75*
G02*
X160400000Y-62375000I0J100000D01*
G01*
G37*
G04 #@! TD.AperFunction*
D13*
X170900000Y-67250000D03*
X170900000Y-62750000D03*
X177400000Y-67250000D03*
X177400000Y-62750000D03*
G04 #@! TA.AperFunction,SMDPad,CuDef*
G36*
G01*
X144799999Y-72950000D02*
X145700001Y-72950000D01*
G75*
G02*
X145950000Y-73199999I0J-249999D01*
G01*
X145950000Y-73850001D01*
G75*
G02*
X145700001Y-74100000I-249999J0D01*
G01*
X144799999Y-74100000D01*
G75*
G02*
X144550000Y-73850001I0J249999D01*
G01*
X144550000Y-73199999D01*
G75*
G02*
X144799999Y-72950000I249999J0D01*
G01*
G37*
G04 #@! TD.AperFunction*
G04 #@! TA.AperFunction,SMDPad,CuDef*
G36*
G01*
X144799999Y-70900000D02*
X145700001Y-70900000D01*
G75*
G02*
X145950000Y-71149999I0J-249999D01*
G01*
X145950000Y-71800001D01*
G75*
G02*
X145700001Y-72050000I-249999J0D01*
G01*
X144799999Y-72050000D01*
G75*
G02*
X144550000Y-71800001I0J249999D01*
G01*
X144550000Y-71149999D01*
G75*
G02*
X144799999Y-70900000I249999J0D01*
G01*
G37*
G04 #@! TD.AperFunction*
G04 #@! TA.AperFunction,SMDPad,CuDef*
G36*
G01*
X152049999Y-68950000D02*
X152950001Y-68950000D01*
G75*
G02*
X153200000Y-69199999I0J-249999D01*
G01*
X153200000Y-69850001D01*
G75*
G02*
X152950001Y-70100000I-249999J0D01*
G01*
X152049999Y-70100000D01*
G75*
G02*
X151800000Y-69850001I0J249999D01*
G01*
X151800000Y-69199999D01*
G75*
G02*
X152049999Y-68950000I249999J0D01*
G01*
G37*
G04 #@! TD.AperFunction*
G04 #@! TA.AperFunction,SMDPad,CuDef*
G36*
G01*
X152049999Y-66900000D02*
X152950001Y-66900000D01*
G75*
G02*
X153200000Y-67149999I0J-249999D01*
G01*
X153200000Y-67800001D01*
G75*
G02*
X152950001Y-68050000I-249999J0D01*
G01*
X152049999Y-68050000D01*
G75*
G02*
X151800000Y-67800001I0J249999D01*
G01*
X151800000Y-67149999D01*
G75*
G02*
X152049999Y-66900000I249999J0D01*
G01*
G37*
G04 #@! TD.AperFunction*
G04 #@! TA.AperFunction,SMDPad,CuDef*
G36*
G01*
X137749999Y-71250000D02*
X138650001Y-71250000D01*
G75*
G02*
X138900000Y-71499999I0J-249999D01*
G01*
X138900000Y-72150001D01*
G75*
G02*
X138650001Y-72400000I-249999J0D01*
G01*
X137749999Y-72400000D01*
G75*
G02*
X137500000Y-72150001I0J249999D01*
G01*
X137500000Y-71499999D01*
G75*
G02*
X137749999Y-71250000I249999J0D01*
G01*
G37*
G04 #@! TD.AperFunction*
G04 #@! TA.AperFunction,SMDPad,CuDef*
G36*
G01*
X137749999Y-69200000D02*
X138650001Y-69200000D01*
G75*
G02*
X138900000Y-69449999I0J-249999D01*
G01*
X138900000Y-70100001D01*
G75*
G02*
X138650001Y-70350000I-249999J0D01*
G01*
X137749999Y-70350000D01*
G75*
G02*
X137500000Y-70100001I0J249999D01*
G01*
X137500000Y-69449999D01*
G75*
G02*
X137749999Y-69200000I249999J0D01*
G01*
G37*
G04 #@! TD.AperFunction*
G04 #@! TA.AperFunction,SMDPad,CuDef*
G36*
G01*
X150200001Y-61300000D02*
X149299999Y-61300000D01*
G75*
G02*
X149050000Y-61050001I0J249999D01*
G01*
X149050000Y-60399999D01*
G75*
G02*
X149299999Y-60150000I249999J0D01*
G01*
X150200001Y-60150000D01*
G75*
G02*
X150450000Y-60399999I0J-249999D01*
G01*
X150450000Y-61050001D01*
G75*
G02*
X150200001Y-61300000I-249999J0D01*
G01*
G37*
G04 #@! TD.AperFunction*
G04 #@! TA.AperFunction,SMDPad,CuDef*
G36*
G01*
X150200001Y-63350000D02*
X149299999Y-63350000D01*
G75*
G02*
X149050000Y-63100001I0J249999D01*
G01*
X149050000Y-62449999D01*
G75*
G02*
X149299999Y-62200000I249999J0D01*
G01*
X150200001Y-62200000D01*
G75*
G02*
X150450000Y-62449999I0J-249999D01*
G01*
X150450000Y-63100001D01*
G75*
G02*
X150200001Y-63350000I-249999J0D01*
G01*
G37*
G04 #@! TD.AperFunction*
G04 #@! TA.AperFunction,SMDPad,CuDef*
G36*
G01*
X148700000Y-66950001D02*
X148700000Y-66049999D01*
G75*
G02*
X148949999Y-65800000I249999J0D01*
G01*
X149600001Y-65800000D01*
G75*
G02*
X149850000Y-66049999I0J-249999D01*
G01*
X149850000Y-66950001D01*
G75*
G02*
X149600001Y-67200000I-249999J0D01*
G01*
X148949999Y-67200000D01*
G75*
G02*
X148700000Y-66950001I0J249999D01*
G01*
G37*
G04 #@! TD.AperFunction*
G04 #@! TA.AperFunction,SMDPad,CuDef*
G36*
G01*
X146650000Y-66950001D02*
X146650000Y-66049999D01*
G75*
G02*
X146899999Y-65800000I249999J0D01*
G01*
X147550001Y-65800000D01*
G75*
G02*
X147800000Y-66049999I0J-249999D01*
G01*
X147800000Y-66950001D01*
G75*
G02*
X147550001Y-67200000I-249999J0D01*
G01*
X146899999Y-67200000D01*
G75*
G02*
X146650000Y-66950001I0J249999D01*
G01*
G37*
G04 #@! TD.AperFunction*
G04 #@! TA.AperFunction,SMDPad,CuDef*
G36*
G01*
X142450000Y-65950001D02*
X142450000Y-65049999D01*
G75*
G02*
X142699999Y-64800000I249999J0D01*
G01*
X143350001Y-64800000D01*
G75*
G02*
X143600000Y-65049999I0J-249999D01*
G01*
X143600000Y-65950001D01*
G75*
G02*
X143350001Y-66200000I-249999J0D01*
G01*
X142699999Y-66200000D01*
G75*
G02*
X142450000Y-65950001I0J249999D01*
G01*
G37*
G04 #@! TD.AperFunction*
G04 #@! TA.AperFunction,SMDPad,CuDef*
G36*
G01*
X140400000Y-65950001D02*
X140400000Y-65049999D01*
G75*
G02*
X140649999Y-64800000I249999J0D01*
G01*
X141300001Y-64800000D01*
G75*
G02*
X141550000Y-65049999I0J-249999D01*
G01*
X141550000Y-65950001D01*
G75*
G02*
X141300001Y-66200000I-249999J0D01*
G01*
X140649999Y-66200000D01*
G75*
G02*
X140400000Y-65950001I0J249999D01*
G01*
G37*
G04 #@! TD.AperFunction*
D14*
X154500000Y-61750000D03*
X152500000Y-62700000D03*
X152500000Y-60800000D03*
X145750000Y-61750000D03*
X147750000Y-60800000D03*
X147750000Y-62700000D03*
D15*
X142000000Y-69500000D03*
X141050000Y-67500000D03*
X142950000Y-67500000D03*
X140800000Y-59000000D03*
X141750000Y-61000000D03*
X139850000Y-61000000D03*
D16*
X132140000Y-57200000D03*
X132140000Y-58470000D03*
X130870000Y-57200000D03*
X130870000Y-58470000D03*
X129600000Y-57200000D03*
X129600000Y-58470000D03*
D14*
X149400000Y-71200000D03*
X147400000Y-72150000D03*
X147400000Y-70250000D03*
G04 #@! TA.AperFunction,SMDPad,CuDef*
G36*
G01*
X159350001Y-64850000D02*
X158449999Y-64850000D01*
G75*
G02*
X158200000Y-64600001I0J249999D01*
G01*
X158200000Y-63949999D01*
G75*
G02*
X158449999Y-63700000I249999J0D01*
G01*
X159350001Y-63700000D01*
G75*
G02*
X159600000Y-63949999I0J-249999D01*
G01*
X159600000Y-64600001D01*
G75*
G02*
X159350001Y-64850000I-249999J0D01*
G01*
G37*
G04 #@! TD.AperFunction*
G04 #@! TA.AperFunction,SMDPad,CuDef*
G36*
G01*
X159350001Y-66900000D02*
X158449999Y-66900000D01*
G75*
G02*
X158200000Y-66650001I0J249999D01*
G01*
X158200000Y-65999999D01*
G75*
G02*
X158449999Y-65750000I249999J0D01*
G01*
X159350001Y-65750000D01*
G75*
G02*
X159600000Y-65999999I0J-249999D01*
G01*
X159600000Y-66650001D01*
G75*
G02*
X159350001Y-66900000I-249999J0D01*
G01*
G37*
G04 #@! TD.AperFunction*
G04 #@! TA.AperFunction,SMDPad,CuDef*
G36*
G01*
X157400001Y-68050000D02*
X156499999Y-68050000D01*
G75*
G02*
X156250000Y-67800001I0J249999D01*
G01*
X156250000Y-67149999D01*
G75*
G02*
X156499999Y-66900000I249999J0D01*
G01*
X157400001Y-66900000D01*
G75*
G02*
X157650000Y-67149999I0J-249999D01*
G01*
X157650000Y-67800001D01*
G75*
G02*
X157400001Y-68050000I-249999J0D01*
G01*
G37*
G04 #@! TD.AperFunction*
G04 #@! TA.AperFunction,SMDPad,CuDef*
G36*
G01*
X157400001Y-70100000D02*
X156499999Y-70100000D01*
G75*
G02*
X156250000Y-69850001I0J249999D01*
G01*
X156250000Y-69199999D01*
G75*
G02*
X156499999Y-68950000I249999J0D01*
G01*
X157400001Y-68950000D01*
G75*
G02*
X157650000Y-69199999I0J-249999D01*
G01*
X157650000Y-69850001D01*
G75*
G02*
X157400001Y-70100000I-249999J0D01*
G01*
G37*
G04 #@! TD.AperFunction*
G04 #@! TA.AperFunction,SMDPad,CuDef*
G36*
G01*
X155275001Y-68050000D02*
X154374999Y-68050000D01*
G75*
G02*
X154125000Y-67800001I0J249999D01*
G01*
X154125000Y-67149999D01*
G75*
G02*
X154374999Y-66900000I249999J0D01*
G01*
X155275001Y-66900000D01*
G75*
G02*
X155525000Y-67149999I0J-249999D01*
G01*
X155525000Y-67800001D01*
G75*
G02*
X155275001Y-68050000I-249999J0D01*
G01*
G37*
G04 #@! TD.AperFunction*
G04 #@! TA.AperFunction,SMDPad,CuDef*
G36*
G01*
X155275001Y-70100000D02*
X154374999Y-70100000D01*
G75*
G02*
X154125000Y-69850001I0J249999D01*
G01*
X154125000Y-69199999D01*
G75*
G02*
X154374999Y-68950000I249999J0D01*
G01*
X155275001Y-68950000D01*
G75*
G02*
X155525000Y-69199999I0J-249999D01*
G01*
X155525000Y-69850001D01*
G75*
G02*
X155275001Y-70100000I-249999J0D01*
G01*
G37*
G04 #@! TD.AperFunction*
D17*
X132000004Y-68500010D03*
X141800000Y-72750000D03*
X141800000Y-71250000D03*
X140500000Y-71250000D03*
X140500000Y-72750000D03*
D18*
X168000000Y-60700000D03*
X150750000Y-69250000D03*
X169300000Y-60700000D03*
X150750000Y-70750000D03*
X163449988Y-64250000D03*
X162675000Y-62925000D03*
X165100000Y-62399994D03*
X145250000Y-64750000D03*
X156000000Y-61750000D03*
X151750000Y-66000006D03*
X151250000Y-62750000D03*
X150750000Y-67500008D03*
D19*
X145250000Y-73525000D02*
X145250000Y-74500000D01*
X156625000Y-69525000D02*
X152500000Y-69525000D01*
X156625000Y-69525000D02*
X157725000Y-69525000D01*
D20*
X159000000Y-64275000D02*
X159200000Y-64475000D01*
X160448942Y-66175000D02*
X161137500Y-66175000D01*
X158900000Y-64626058D02*
X160448942Y-66175000D01*
X158900000Y-64275000D02*
X158900000Y-64626058D01*
D19*
X162002834Y-66175000D02*
X161137500Y-66175000D01*
X162900000Y-67072166D02*
X162002834Y-66175000D01*
X162900000Y-68700000D02*
X162900000Y-67072166D01*
X162075000Y-69525000D02*
X162900000Y-68700000D01*
X157725000Y-69525000D02*
X162075000Y-69525000D01*
D21*
X138100000Y-74500000D02*
X132100010Y-68500010D01*
X132100010Y-68500010D02*
X132000004Y-68500010D01*
D20*
X138250000Y-74350000D02*
X138100000Y-74500000D01*
X138250000Y-71875000D02*
X138250000Y-74350000D01*
X138200000Y-71825000D02*
X138250000Y-71875000D01*
D22*
X197950000Y-62450000D02*
X196740000Y-62450000D01*
X200000000Y-64500000D02*
X197950000Y-62450000D01*
X200000000Y-65000000D02*
X200000000Y-64500000D01*
D21*
X152524990Y-74274990D02*
X152500000Y-74250000D01*
X152299980Y-74500000D02*
X138100000Y-74500000D01*
X152524990Y-74274990D02*
X152299980Y-74500000D01*
X153299980Y-73500000D02*
X152524990Y-74274990D01*
D19*
X157725000Y-73275000D02*
X157500000Y-73500000D01*
X157725000Y-69525000D02*
X157725000Y-73275000D01*
X152500000Y-72700020D02*
X153299980Y-73500000D01*
X152500000Y-69525000D02*
X152500000Y-72700020D01*
D20*
X177400000Y-73400000D02*
X177500000Y-73500000D01*
X177400000Y-67500000D02*
X177400000Y-73400000D01*
D21*
X194250000Y-73500000D02*
X153299980Y-73500000D01*
X200000000Y-67750000D02*
X194250000Y-73500000D01*
X200000000Y-65000000D02*
X200000000Y-67750000D01*
D19*
X146650000Y-69500000D02*
X147400000Y-70250000D01*
X142000000Y-69500000D02*
X146650000Y-69500000D01*
D22*
X141800000Y-69700000D02*
X142000000Y-69500000D01*
X141800000Y-71100000D02*
X141800000Y-69700000D01*
D19*
X146650000Y-69500000D02*
X147225000Y-70075000D01*
X146650000Y-67075000D02*
X146650000Y-69500000D01*
X147225000Y-66500000D02*
X146650000Y-67075000D01*
X160272166Y-67475000D02*
X161137500Y-67475000D01*
X154825000Y-67475000D02*
X160272166Y-67475000D01*
X154825000Y-66325000D02*
X154825000Y-67475000D01*
X153649993Y-65149993D02*
X154825000Y-66325000D01*
X147587507Y-65149993D02*
X153649993Y-65149993D01*
X147225000Y-65512500D02*
X147587507Y-65149993D01*
X147225000Y-66500000D02*
X147225000Y-65512500D01*
D22*
X129200000Y-65000000D02*
X137400000Y-56800000D01*
X127500000Y-65000000D02*
X129200000Y-65000000D01*
D23*
X137400000Y-56800000D02*
X138200000Y-56800000D01*
D20*
X159400000Y-66825000D02*
X161137500Y-66825000D01*
X158900000Y-66325000D02*
X159400000Y-66825000D01*
X168000000Y-62200000D02*
X168000000Y-60700000D01*
X167925000Y-62275000D02*
X168000000Y-62200000D01*
X166862500Y-62275000D02*
X167925000Y-62275000D01*
X149400000Y-71200000D02*
X149400000Y-70600000D01*
X149400000Y-70600000D02*
X150750000Y-69250000D01*
D19*
X145925000Y-72150000D02*
X145250000Y-71475000D01*
X147400000Y-72150000D02*
X145925000Y-72150000D01*
D20*
X166887500Y-62900000D02*
X166862500Y-62925000D01*
X168362500Y-62900000D02*
X166887500Y-62900000D01*
X169300000Y-61962500D02*
X168362500Y-62900000D01*
X169300000Y-60700000D02*
X169300000Y-61962500D01*
X150750000Y-71565687D02*
X150750000Y-70750000D01*
X150165687Y-72150000D02*
X150750000Y-71565687D01*
X147400000Y-72150000D02*
X150165687Y-72150000D01*
X161137500Y-63575000D02*
X161875000Y-63575000D01*
X161875000Y-63575000D02*
X162550000Y-64250000D01*
X162550000Y-64250000D02*
X163449988Y-64250000D01*
X161137500Y-62925000D02*
X162675000Y-62925000D01*
X165100000Y-62900000D02*
X165100000Y-62399994D01*
X165775000Y-63575000D02*
X165100000Y-62900000D01*
X166862500Y-63575000D02*
X165775000Y-63575000D01*
X145500000Y-64500000D02*
X145250000Y-64750000D01*
X155600000Y-64500000D02*
X145500000Y-64500000D01*
X157100000Y-63000000D02*
X155600000Y-64500000D01*
X159700000Y-63000000D02*
X157100000Y-63000000D01*
X159925010Y-63225010D02*
X159700000Y-63000000D01*
X159925010Y-63925010D02*
X159925010Y-63225010D01*
X160225000Y-64225000D02*
X159925010Y-63925010D01*
X161331595Y-64225000D02*
X160225000Y-64225000D01*
X178750000Y-57270000D02*
X180005000Y-57270000D01*
X170770000Y-65250000D02*
X178750000Y-57270000D01*
X169850000Y-65250000D02*
X170770000Y-65250000D01*
X168275000Y-66825000D02*
X169850000Y-65250000D01*
X166862500Y-66825000D02*
X168275000Y-66825000D01*
D23*
X141050000Y-65575000D02*
X140975000Y-65500000D01*
D22*
X141050000Y-67500000D02*
X141050000Y-65575000D01*
D20*
X141750000Y-61000000D02*
X141750000Y-61150000D01*
X138450000Y-62400000D02*
X139850000Y-61000000D01*
X138250000Y-62600000D02*
X138450000Y-62400000D01*
X138250000Y-69725000D02*
X138250000Y-62600000D01*
X138200000Y-69775000D02*
X138250000Y-69725000D01*
D19*
X142950000Y-65575000D02*
X143025000Y-65500000D01*
X142950000Y-67500000D02*
X142950000Y-65575000D01*
X145750000Y-61750000D02*
X144750000Y-61750000D01*
X144750000Y-63775000D02*
X143025000Y-65500000D01*
X144750000Y-61750000D02*
X144750000Y-63775000D01*
X144750000Y-60750000D02*
X144750000Y-61750000D01*
X147000000Y-58500000D02*
X144750000Y-60750000D01*
X169900000Y-58500000D02*
X147000000Y-58500000D01*
X170800000Y-59400000D02*
X169900000Y-58500000D01*
X170800000Y-62900000D02*
X170800000Y-59400000D01*
X170900000Y-63000000D02*
X170800000Y-62900000D01*
X149675000Y-60800000D02*
X149750000Y-60725000D01*
X147750000Y-60800000D02*
X149675000Y-60800000D01*
X152425000Y-60725000D02*
X152500000Y-60800000D01*
X149750000Y-60725000D02*
X152425000Y-60725000D01*
X149675000Y-62700000D02*
X149750000Y-62775000D01*
X147750000Y-62700000D02*
X149675000Y-62700000D01*
D20*
X150725000Y-63750000D02*
X149750000Y-62775000D01*
X155550000Y-63750000D02*
X150725000Y-63750000D01*
X157025000Y-62275000D02*
X155550000Y-63750000D01*
X161137500Y-62275000D02*
X157025000Y-62275000D01*
X154500000Y-61750000D02*
X156000000Y-61750000D01*
X156750000Y-61000000D02*
X156000000Y-61750000D01*
X165675000Y-67025000D02*
X166125000Y-67475000D01*
X166125000Y-67475000D02*
X166862500Y-67475000D01*
X165675000Y-65148004D02*
X165675000Y-67025000D01*
X164200000Y-63673004D02*
X165675000Y-65148004D01*
X164200000Y-61400000D02*
X164200000Y-63673004D01*
X163800000Y-61000000D02*
X164200000Y-61400000D01*
X156750000Y-61000000D02*
X163800000Y-61000000D01*
X149275000Y-66500000D02*
X151250006Y-66500000D01*
X151250006Y-66500000D02*
X151750000Y-66000006D01*
X151300000Y-62700000D02*
X151250000Y-62750000D01*
X152500000Y-62700000D02*
X151300000Y-62700000D01*
X152500000Y-67475000D02*
X150775008Y-67475000D01*
X150775008Y-67475000D02*
X150750000Y-67500008D01*
X196750000Y-64975000D02*
X196750000Y-65000000D01*
X196750000Y-64960000D02*
X196750000Y-64975000D01*
X189060000Y-57270000D02*
X196750000Y-64960000D01*
X184430000Y-57270000D02*
X189060000Y-57270000D01*
X182055000Y-57270000D02*
X184430000Y-57270000D01*
X185800000Y-57280000D02*
X185790000Y-57270000D01*
X185800000Y-62390000D02*
X185800000Y-57280000D01*
X183240000Y-64950000D02*
X185800000Y-62390000D01*
D24*
X142623000Y-73365000D02*
X139877000Y-73365000D01*
X139877000Y-70627000D01*
X142623000Y-70627000D01*
X142623000Y-73365000D01*
G04 #@! TA.AperFunction,Conductor*
D25*
G36*
X142623000Y-73365000D02*
G01*
X139877000Y-73365000D01*
X139877000Y-70627000D01*
X142623000Y-70627000D01*
X142623000Y-73365000D01*
G37*
G04 #@! TD.AperFunction*
D24*
X143897285Y-55551122D02*
X143873720Y-59722126D01*
X136877715Y-59673878D01*
X136901280Y-55502874D01*
X143897285Y-55551122D01*
G04 #@! TA.AperFunction,Conductor*
D25*
G36*
X143897285Y-55551122D02*
G01*
X143873720Y-59722126D01*
X136877715Y-59673878D01*
X136901280Y-55502874D01*
X143897285Y-55551122D01*
G37*
G04 #@! TD.AperFunction*
D24*
X143860719Y-60750000D02*
X143865000Y-60793470D01*
X143865001Y-61706514D01*
X143860718Y-61750000D01*
X143865000Y-61793477D01*
X143865001Y-63408420D01*
X143111494Y-64161928D01*
X142699999Y-64161928D01*
X142526745Y-64178992D01*
X142360149Y-64229528D01*
X142206613Y-64311595D01*
X142072038Y-64422038D01*
X141961595Y-64556613D01*
X141879528Y-64710149D01*
X141828992Y-64876745D01*
X141811928Y-65049999D01*
X141811928Y-65950001D01*
X141824042Y-66073000D01*
X139328139Y-66073000D01*
X139359457Y-62565344D01*
X139836730Y-62088072D01*
X140250000Y-62088072D01*
X140374482Y-62075812D01*
X140494180Y-62039502D01*
X140604494Y-61980537D01*
X140701185Y-61901185D01*
X140780537Y-61804494D01*
X140839502Y-61694180D01*
X140875812Y-61574482D01*
X140888072Y-61450000D01*
X140888072Y-60727000D01*
X143862984Y-60727000D01*
X143860719Y-60750000D01*
G04 #@! TA.AperFunction,Conductor*
D25*
G36*
X143860719Y-60750000D02*
G01*
X143865000Y-60793470D01*
X143865001Y-61706514D01*
X143860718Y-61750000D01*
X143865000Y-61793477D01*
X143865001Y-63408420D01*
X143111494Y-64161928D01*
X142699999Y-64161928D01*
X142526745Y-64178992D01*
X142360149Y-64229528D01*
X142206613Y-64311595D01*
X142072038Y-64422038D01*
X141961595Y-64556613D01*
X141879528Y-64710149D01*
X141828992Y-64876745D01*
X141811928Y-65049999D01*
X141811928Y-65950001D01*
X141824042Y-66073000D01*
X139328139Y-66073000D01*
X139359457Y-62565344D01*
X139836730Y-62088072D01*
X140250000Y-62088072D01*
X140374482Y-62075812D01*
X140494180Y-62039502D01*
X140604494Y-61980537D01*
X140701185Y-61901185D01*
X140780537Y-61804494D01*
X140839502Y-61694180D01*
X140875812Y-61574482D01*
X140888072Y-61450000D01*
X140888072Y-60727000D01*
X143862984Y-60727000D01*
X143860719Y-60750000D01*
G37*
G04 #@! TD.AperFunction*
M02*
