G04 #@! TF.GenerationSoftware,KiCad,Pcbnew,(5.1.10)-1*
G04 #@! TF.CreationDate,2021-10-05T02:57:27+03:00*
G04 #@! TF.ProjectId,led_controller_stm8,6c65645f-636f-46e7-9472-6f6c6c65725f,rev?*
G04 #@! TF.SameCoordinates,Original*
G04 #@! TF.FileFunction,Legend,Top*
G04 #@! TF.FilePolarity,Positive*
%FSLAX46Y46*%
G04 Gerber Fmt 4.6, Leading zero omitted, Abs format (unit mm)*
G04 Created by KiCad (PCBNEW (5.1.10)-1) date 2021-10-05 02:57:27*
%MOMM*%
%LPD*%
G01*
G04 APERTURE LIST*
%ADD10C,0.120000*%
%ADD11C,0.150000*%
%ADD12O,1.950000X1.700000*%
%ADD13C,3.500000*%
%ADD14C,2.000000*%
%ADD15R,0.900000X0.800000*%
%ADD16R,0.800000X0.900000*%
%ADD17C,1.000000*%
G04 APERTURE END LIST*
D10*
X151250000Y-57750000D02*
X145250000Y-57750000D01*
X136250000Y-57750000D02*
X142250000Y-57750000D01*
X136250000Y-53750000D02*
X136250000Y-57750000D01*
X151250000Y-53750000D02*
X151250000Y-57750000D01*
X136250000Y-53750000D02*
X151250000Y-53750000D01*
X151000000Y-55750000D02*
X136500000Y-55750000D01*
X144500000Y-54000000D02*
X144500000Y-57500000D01*
X140000000Y-54000000D02*
X140000000Y-57500000D01*
X136500000Y-57500000D02*
X136500000Y-54000000D01*
X151000000Y-57500000D02*
X136500000Y-57500000D01*
X151000000Y-54000000D02*
X151000000Y-57500000D01*
X136500000Y-54000000D02*
X151000000Y-54000000D01*
D11*
X144835595Y-57202380D02*
X144835595Y-56202380D01*
X145168928Y-56916666D01*
X145502261Y-56202380D01*
X145502261Y-57202380D01*
X146549880Y-57107142D02*
X146502261Y-57154761D01*
X146359404Y-57202380D01*
X146264166Y-57202380D01*
X146121309Y-57154761D01*
X146026071Y-57059523D01*
X145978452Y-56964285D01*
X145930833Y-56773809D01*
X145930833Y-56630952D01*
X145978452Y-56440476D01*
X146026071Y-56345238D01*
X146121309Y-56250000D01*
X146264166Y-56202380D01*
X146359404Y-56202380D01*
X146502261Y-56250000D01*
X146549880Y-56297619D01*
X146978452Y-56202380D02*
X146978452Y-57011904D01*
X147026071Y-57107142D01*
X147073690Y-57154761D01*
X147168928Y-57202380D01*
X147359404Y-57202380D01*
X147454642Y-57154761D01*
X147502261Y-57107142D01*
X147549880Y-57011904D01*
X147549880Y-56202380D01*
X147787976Y-57297619D02*
X148549880Y-57297619D01*
X148645119Y-56202380D02*
X149216547Y-56202380D01*
X148930833Y-57202380D02*
X148930833Y-56202380D01*
X149454642Y-56202380D02*
X150121309Y-57202380D01*
X150121309Y-56202380D02*
X149454642Y-57202380D01*
X144835595Y-55452380D02*
X144835595Y-54452380D01*
X145168928Y-55166666D01*
X145502261Y-54452380D01*
X145502261Y-55452380D01*
X146549880Y-55357142D02*
X146502261Y-55404761D01*
X146359404Y-55452380D01*
X146264166Y-55452380D01*
X146121309Y-55404761D01*
X146026071Y-55309523D01*
X145978452Y-55214285D01*
X145930833Y-55023809D01*
X145930833Y-54880952D01*
X145978452Y-54690476D01*
X146026071Y-54595238D01*
X146121309Y-54500000D01*
X146264166Y-54452380D01*
X146359404Y-54452380D01*
X146502261Y-54500000D01*
X146549880Y-54547619D01*
X146978452Y-54452380D02*
X146978452Y-55261904D01*
X147026071Y-55357142D01*
X147073690Y-55404761D01*
X147168928Y-55452380D01*
X147359404Y-55452380D01*
X147454642Y-55404761D01*
X147502261Y-55357142D01*
X147549880Y-55261904D01*
X147549880Y-54452380D01*
X147787976Y-55547619D02*
X148549880Y-55547619D01*
X149359404Y-55452380D02*
X149026071Y-54976190D01*
X148787976Y-55452380D02*
X148787976Y-54452380D01*
X149168928Y-54452380D01*
X149264166Y-54500000D01*
X149311785Y-54547619D01*
X149359404Y-54642857D01*
X149359404Y-54785714D01*
X149311785Y-54880952D01*
X149264166Y-54928571D01*
X149168928Y-54976190D01*
X148787976Y-54976190D01*
X149692738Y-54452380D02*
X150359404Y-55452380D01*
X150359404Y-54452380D02*
X149692738Y-55452380D01*
X140335595Y-57202380D02*
X140335595Y-56202380D01*
X140907023Y-57202380D01*
X140907023Y-56202380D01*
X141954642Y-57202380D02*
X141621309Y-56726190D01*
X141383214Y-57202380D02*
X141383214Y-56202380D01*
X141764166Y-56202380D01*
X141859404Y-56250000D01*
X141907023Y-56297619D01*
X141954642Y-56392857D01*
X141954642Y-56535714D01*
X141907023Y-56630952D01*
X141859404Y-56678571D01*
X141764166Y-56726190D01*
X141383214Y-56726190D01*
X142335595Y-57154761D02*
X142478452Y-57202380D01*
X142716547Y-57202380D01*
X142811785Y-57154761D01*
X142859404Y-57107142D01*
X142907023Y-57011904D01*
X142907023Y-56916666D01*
X142859404Y-56821428D01*
X142811785Y-56773809D01*
X142716547Y-56726190D01*
X142526071Y-56678571D01*
X142430833Y-56630952D01*
X142383214Y-56583333D01*
X142335595Y-56488095D01*
X142335595Y-56392857D01*
X142383214Y-56297619D01*
X142430833Y-56250000D01*
X142526071Y-56202380D01*
X142764166Y-56202380D01*
X142907023Y-56250000D01*
X143192738Y-56202380D02*
X143764166Y-56202380D01*
X143478452Y-57202380D02*
X143478452Y-56202380D01*
X140287976Y-55404761D02*
X140430833Y-55452380D01*
X140668928Y-55452380D01*
X140764166Y-55404761D01*
X140811785Y-55357142D01*
X140859404Y-55261904D01*
X140859404Y-55166666D01*
X140811785Y-55071428D01*
X140764166Y-55023809D01*
X140668928Y-54976190D01*
X140478452Y-54928571D01*
X140383214Y-54880952D01*
X140335595Y-54833333D01*
X140287976Y-54738095D01*
X140287976Y-54642857D01*
X140335595Y-54547619D01*
X140383214Y-54500000D01*
X140478452Y-54452380D01*
X140716547Y-54452380D01*
X140859404Y-54500000D01*
X141192738Y-54452380D02*
X141430833Y-55452380D01*
X141621309Y-54738095D01*
X141811785Y-55452380D01*
X142049880Y-54452380D01*
X142430833Y-55452380D02*
X142430833Y-54452380D01*
X142907023Y-55452380D02*
X142907023Y-54452380D01*
X143240357Y-55166666D01*
X143573690Y-54452380D01*
X143573690Y-55452380D01*
X136835595Y-57202380D02*
X136835595Y-56202380D01*
X137407023Y-57202380D01*
X137407023Y-56202380D01*
X138454642Y-57107142D02*
X138407023Y-57154761D01*
X138264166Y-57202380D01*
X138168928Y-57202380D01*
X138026071Y-57154761D01*
X137930833Y-57059523D01*
X137883214Y-56964285D01*
X137835595Y-56773809D01*
X137835595Y-56630952D01*
X137883214Y-56440476D01*
X137930833Y-56345238D01*
X138026071Y-56250000D01*
X138168928Y-56202380D01*
X138264166Y-56202380D01*
X138407023Y-56250000D01*
X138454642Y-56297619D01*
X137359404Y-54500000D02*
X137264166Y-54452380D01*
X137121309Y-54452380D01*
X136978452Y-54500000D01*
X136883214Y-54595238D01*
X136835595Y-54690476D01*
X136787976Y-54880952D01*
X136787976Y-55023809D01*
X136835595Y-55214285D01*
X136883214Y-55309523D01*
X136978452Y-55404761D01*
X137121309Y-55452380D01*
X137216547Y-55452380D01*
X137359404Y-55404761D01*
X137407023Y-55357142D01*
X137407023Y-55023809D01*
X137216547Y-55023809D01*
X137835595Y-55452380D02*
X137835595Y-54452380D01*
X138407023Y-55452380D01*
X138407023Y-54452380D01*
X138883214Y-55452380D02*
X138883214Y-54452380D01*
X139121309Y-54452380D01*
X139264166Y-54500000D01*
X139359404Y-54595238D01*
X139407023Y-54690476D01*
X139454642Y-54880952D01*
X139454642Y-55023809D01*
X139407023Y-55214285D01*
X139359404Y-55309523D01*
X139264166Y-55404761D01*
X139121309Y-55452380D01*
X138883214Y-55452380D01*
D10*
X195500000Y-65000000D02*
G75*
G03*
X195500000Y-65000000I-4000000J0D01*
G01*
X140000000Y-65000000D02*
G75*
G03*
X140000000Y-65000000I-4000000J0D01*
G01*
X180490000Y-70300000D02*
X181740000Y-70300000D01*
X180490000Y-69050000D02*
X180490000Y-70300000D01*
X185990000Y-60650000D02*
X185990000Y-64950000D01*
X183040000Y-60650000D02*
X185990000Y-60650000D01*
X183040000Y-59900000D02*
X183040000Y-60650000D01*
X185990000Y-69250000D02*
X185990000Y-64950000D01*
X183040000Y-69250000D02*
X185990000Y-69250000D01*
X183040000Y-70000000D02*
X183040000Y-69250000D01*
X180790000Y-59900000D02*
X180790000Y-61700000D01*
X181540000Y-59900000D02*
X180790000Y-59900000D01*
X181540000Y-61700000D02*
X181540000Y-59900000D01*
X180790000Y-61700000D02*
X181540000Y-61700000D01*
X180790000Y-68200000D02*
X180790000Y-70000000D01*
X181540000Y-68200000D02*
X180790000Y-68200000D01*
X181540000Y-70000000D02*
X181540000Y-68200000D01*
X180790000Y-70000000D02*
X181540000Y-70000000D01*
X180790000Y-63200000D02*
X180790000Y-66700000D01*
X181540000Y-63200000D02*
X180790000Y-63200000D01*
X181540000Y-66700000D02*
X181540000Y-63200000D01*
X180790000Y-66700000D02*
X181540000Y-66700000D01*
X180780000Y-59890000D02*
X180780000Y-70010000D01*
X186750000Y-59890000D02*
X180780000Y-59890000D01*
X186750000Y-70010000D02*
X186750000Y-59890000D01*
X180780000Y-70010000D02*
X186750000Y-70010000D01*
X194640000Y-67150000D02*
X195240000Y-67450000D01*
X194640000Y-67750000D02*
X194640000Y-67150000D01*
X195240000Y-67450000D02*
X194640000Y-67750000D01*
X198340000Y-62200000D02*
X198340000Y-62700000D01*
X203840000Y-62200000D02*
X198340000Y-62200000D01*
X203840000Y-62700000D02*
X203840000Y-62200000D01*
X198340000Y-62700000D02*
X203840000Y-62700000D01*
X198340000Y-64700000D02*
X198340000Y-65200000D01*
X203840000Y-64700000D02*
X198340000Y-64700000D01*
X203840000Y-65200000D02*
X203840000Y-64700000D01*
X198340000Y-65200000D02*
X203840000Y-65200000D01*
X198340000Y-67200000D02*
X198340000Y-67700000D01*
X203840000Y-67200000D02*
X198340000Y-67200000D01*
X203840000Y-67700000D02*
X203840000Y-67200000D01*
X198340000Y-67700000D02*
X203840000Y-67700000D01*
X192730000Y-61310000D02*
X197230000Y-61310000D01*
X192730000Y-59890000D02*
X192730000Y-61310000D01*
X204450000Y-59890000D02*
X192730000Y-59890000D01*
X204450000Y-64950000D02*
X204450000Y-59890000D01*
X192730000Y-68590000D02*
X197230000Y-68590000D01*
X192730000Y-70010000D02*
X192730000Y-68590000D01*
X204450000Y-70010000D02*
X192730000Y-70010000D01*
X204450000Y-64950000D02*
X204450000Y-70010000D01*
X181291252Y-57980000D02*
X180768748Y-57980000D01*
X181291252Y-56560000D02*
X180768748Y-56560000D01*
X164000000Y-61815000D02*
X160400000Y-61815000D01*
X164000000Y-61815000D02*
X166200000Y-61815000D01*
X164000000Y-68585000D02*
X161800000Y-68585000D01*
X164000000Y-68585000D02*
X166200000Y-68585000D01*
X170650000Y-64250000D02*
X170650000Y-65750000D01*
X171900000Y-68250000D02*
X176400000Y-68250000D01*
X177650000Y-65750000D02*
X177650000Y-64250000D01*
X176400000Y-61750000D02*
X171900000Y-61750000D01*
X144540000Y-72238748D02*
X144540000Y-72761252D01*
X145960000Y-72238748D02*
X145960000Y-72761252D01*
X151790000Y-68238748D02*
X151790000Y-68761252D01*
X153210000Y-68238748D02*
X153210000Y-68761252D01*
X137490000Y-70538748D02*
X137490000Y-71061252D01*
X138910000Y-70538748D02*
X138910000Y-71061252D01*
X150460000Y-62011252D02*
X150460000Y-61488748D01*
X149040000Y-62011252D02*
X149040000Y-61488748D01*
X147988748Y-67210000D02*
X148511252Y-67210000D01*
X147988748Y-65790000D02*
X148511252Y-65790000D01*
X141738748Y-66210000D02*
X142261252Y-66210000D01*
X141738748Y-64790000D02*
X142261252Y-64790000D01*
X154260000Y-63330000D02*
X152800000Y-63330000D01*
X154260000Y-60170000D02*
X152100000Y-60170000D01*
X154260000Y-60170000D02*
X154260000Y-61100000D01*
X154260000Y-63330000D02*
X154260000Y-62400000D01*
X145990000Y-60170000D02*
X147450000Y-60170000D01*
X145990000Y-63330000D02*
X148150000Y-63330000D01*
X145990000Y-63330000D02*
X145990000Y-62400000D01*
X145990000Y-60170000D02*
X145990000Y-61100000D01*
X140420000Y-69260000D02*
X140420000Y-67800000D01*
X143580000Y-69260000D02*
X143580000Y-67100000D01*
X143580000Y-69260000D02*
X142650000Y-69260000D01*
X140420000Y-69260000D02*
X141350000Y-69260000D01*
X142380000Y-59240000D02*
X142380000Y-60700000D01*
X139220000Y-59240000D02*
X139220000Y-61400000D01*
X139220000Y-59240000D02*
X140150000Y-59240000D01*
X142380000Y-59240000D02*
X141450000Y-59240000D01*
X135950000Y-60375000D02*
X132140000Y-60375000D01*
X135950000Y-55295000D02*
X135950000Y-60375000D01*
X129600000Y-55295000D02*
X135950000Y-55295000D01*
X125790000Y-60375000D02*
X129600000Y-60375000D01*
X125790000Y-55295000D02*
X125790000Y-60375000D01*
X129600000Y-55295000D02*
X125790000Y-55295000D01*
X149160000Y-72780000D02*
X147700000Y-72780000D01*
X149160000Y-69620000D02*
X147000000Y-69620000D01*
X149160000Y-69620000D02*
X149160000Y-70550000D01*
X149160000Y-72780000D02*
X149160000Y-71850000D01*
X159610000Y-65561252D02*
X159610000Y-65038748D01*
X158190000Y-65561252D02*
X158190000Y-65038748D01*
X157660000Y-68761252D02*
X157660000Y-68238748D01*
X156240000Y-68761252D02*
X156240000Y-68238748D01*
X155535000Y-68761252D02*
X155535000Y-68238748D01*
X154115000Y-68761252D02*
X154115000Y-68238748D01*
D11*
X179142380Y-65283333D02*
X179856666Y-65283333D01*
X179999523Y-65330952D01*
X180094761Y-65426190D01*
X180142380Y-65569047D01*
X180142380Y-65664285D01*
X179142380Y-64902380D02*
X179142380Y-64283333D01*
X179523333Y-64616666D01*
X179523333Y-64473809D01*
X179570952Y-64378571D01*
X179618571Y-64330952D01*
X179713809Y-64283333D01*
X179951904Y-64283333D01*
X180047142Y-64330952D01*
X180094761Y-64378571D01*
X180142380Y-64473809D01*
X180142380Y-64759523D01*
X180094761Y-64854761D01*
X180047142Y-64902380D01*
X196692380Y-71783333D02*
X197406666Y-71783333D01*
X197549523Y-71830952D01*
X197644761Y-71926190D01*
X197692380Y-72069047D01*
X197692380Y-72164285D01*
X196787619Y-71354761D02*
X196740000Y-71307142D01*
X196692380Y-71211904D01*
X196692380Y-70973809D01*
X196740000Y-70878571D01*
X196787619Y-70830952D01*
X196882857Y-70783333D01*
X196978095Y-70783333D01*
X197120952Y-70830952D01*
X197692380Y-71402380D01*
X197692380Y-70783333D01*
X181163333Y-55922380D02*
X180830000Y-55446190D01*
X180591904Y-55922380D02*
X180591904Y-54922380D01*
X180972857Y-54922380D01*
X181068095Y-54970000D01*
X181115714Y-55017619D01*
X181163333Y-55112857D01*
X181163333Y-55255714D01*
X181115714Y-55350952D01*
X181068095Y-55398571D01*
X180972857Y-55446190D01*
X180591904Y-55446190D01*
X181496666Y-54922380D02*
X182163333Y-54922380D01*
X181734761Y-55922380D01*
X163238095Y-60452380D02*
X163238095Y-61261904D01*
X163285714Y-61357142D01*
X163333333Y-61404761D01*
X163428571Y-61452380D01*
X163619047Y-61452380D01*
X163714285Y-61404761D01*
X163761904Y-61357142D01*
X163809523Y-61261904D01*
X163809523Y-60452380D01*
X164809523Y-61452380D02*
X164238095Y-61452380D01*
X164523809Y-61452380D02*
X164523809Y-60452380D01*
X164428571Y-60595238D01*
X164333333Y-60690476D01*
X164238095Y-60738095D01*
X172666666Y-70404761D02*
X172809523Y-70452380D01*
X173047619Y-70452380D01*
X173142857Y-70404761D01*
X173190476Y-70357142D01*
X173238095Y-70261904D01*
X173238095Y-70166666D01*
X173190476Y-70071428D01*
X173142857Y-70023809D01*
X173047619Y-69976190D01*
X172857142Y-69928571D01*
X172761904Y-69880952D01*
X172714285Y-69833333D01*
X172666666Y-69738095D01*
X172666666Y-69642857D01*
X172714285Y-69547619D01*
X172761904Y-69500000D01*
X172857142Y-69452380D01*
X173095238Y-69452380D01*
X173238095Y-69500000D01*
X173571428Y-69452380D02*
X173809523Y-70452380D01*
X174000000Y-69738095D01*
X174190476Y-70452380D01*
X174428571Y-69452380D01*
X175333333Y-70452380D02*
X174761904Y-70452380D01*
X175047619Y-70452380D02*
X175047619Y-69452380D01*
X174952380Y-69595238D01*
X174857142Y-69690476D01*
X174761904Y-69738095D01*
X144202380Y-72666666D02*
X143726190Y-73000000D01*
X144202380Y-73238095D02*
X143202380Y-73238095D01*
X143202380Y-72857142D01*
X143250000Y-72761904D01*
X143297619Y-72714285D01*
X143392857Y-72666666D01*
X143535714Y-72666666D01*
X143630952Y-72714285D01*
X143678571Y-72761904D01*
X143726190Y-72857142D01*
X143726190Y-73238095D01*
X143202380Y-71809523D02*
X143202380Y-72000000D01*
X143250000Y-72095238D01*
X143297619Y-72142857D01*
X143440476Y-72238095D01*
X143630952Y-72285714D01*
X144011904Y-72285714D01*
X144107142Y-72238095D01*
X144154761Y-72190476D01*
X144202380Y-72095238D01*
X144202380Y-71904761D01*
X144154761Y-71809523D01*
X144107142Y-71761904D01*
X144011904Y-71714285D01*
X143773809Y-71714285D01*
X143678571Y-71761904D01*
X143630952Y-71809523D01*
X143583333Y-71904761D01*
X143583333Y-72095238D01*
X143630952Y-72190476D01*
X143678571Y-72238095D01*
X143773809Y-72285714D01*
X153052380Y-71766666D02*
X152576190Y-72100000D01*
X153052380Y-72338095D02*
X152052380Y-72338095D01*
X152052380Y-71957142D01*
X152100000Y-71861904D01*
X152147619Y-71814285D01*
X152242857Y-71766666D01*
X152385714Y-71766666D01*
X152480952Y-71814285D01*
X152528571Y-71861904D01*
X152576190Y-71957142D01*
X152576190Y-72338095D01*
X152052380Y-70861904D02*
X152052380Y-71338095D01*
X152528571Y-71385714D01*
X152480952Y-71338095D01*
X152433333Y-71242857D01*
X152433333Y-71004761D01*
X152480952Y-70909523D01*
X152528571Y-70861904D01*
X152623809Y-70814285D01*
X152861904Y-70814285D01*
X152957142Y-70861904D01*
X153004761Y-70909523D01*
X153052380Y-71004761D01*
X153052380Y-71242857D01*
X153004761Y-71338095D01*
X152957142Y-71385714D01*
X138652380Y-73966666D02*
X138176190Y-74300000D01*
X138652380Y-74538095D02*
X137652380Y-74538095D01*
X137652380Y-74157142D01*
X137700000Y-74061904D01*
X137747619Y-74014285D01*
X137842857Y-73966666D01*
X137985714Y-73966666D01*
X138080952Y-74014285D01*
X138128571Y-74061904D01*
X138176190Y-74157142D01*
X138176190Y-74538095D01*
X137985714Y-73109523D02*
X138652380Y-73109523D01*
X137604761Y-73347619D02*
X138319047Y-73585714D01*
X138319047Y-72966666D01*
X149333333Y-59702380D02*
X149000000Y-59226190D01*
X148761904Y-59702380D02*
X148761904Y-58702380D01*
X149142857Y-58702380D01*
X149238095Y-58750000D01*
X149285714Y-58797619D01*
X149333333Y-58892857D01*
X149333333Y-59035714D01*
X149285714Y-59130952D01*
X149238095Y-59178571D01*
X149142857Y-59226190D01*
X148761904Y-59226190D01*
X149666666Y-58702380D02*
X150285714Y-58702380D01*
X149952380Y-59083333D01*
X150095238Y-59083333D01*
X150190476Y-59130952D01*
X150238095Y-59178571D01*
X150285714Y-59273809D01*
X150285714Y-59511904D01*
X150238095Y-59607142D01*
X150190476Y-59654761D01*
X150095238Y-59702380D01*
X149809523Y-59702380D01*
X149714285Y-59654761D01*
X149666666Y-59607142D01*
X148083333Y-65302380D02*
X147750000Y-64826190D01*
X147511904Y-65302380D02*
X147511904Y-64302380D01*
X147892857Y-64302380D01*
X147988095Y-64350000D01*
X148035714Y-64397619D01*
X148083333Y-64492857D01*
X148083333Y-64635714D01*
X148035714Y-64730952D01*
X147988095Y-64778571D01*
X147892857Y-64826190D01*
X147511904Y-64826190D01*
X148464285Y-64397619D02*
X148511904Y-64350000D01*
X148607142Y-64302380D01*
X148845238Y-64302380D01*
X148940476Y-64350000D01*
X148988095Y-64397619D01*
X149035714Y-64492857D01*
X149035714Y-64588095D01*
X148988095Y-64730952D01*
X148416666Y-65302380D01*
X149035714Y-65302380D01*
X141833333Y-64302380D02*
X141500000Y-63826190D01*
X141261904Y-64302380D02*
X141261904Y-63302380D01*
X141642857Y-63302380D01*
X141738095Y-63350000D01*
X141785714Y-63397619D01*
X141833333Y-63492857D01*
X141833333Y-63635714D01*
X141785714Y-63730952D01*
X141738095Y-63778571D01*
X141642857Y-63826190D01*
X141261904Y-63826190D01*
X142785714Y-64302380D02*
X142214285Y-64302380D01*
X142500000Y-64302380D02*
X142500000Y-63302380D01*
X142404761Y-63445238D01*
X142309523Y-63540476D01*
X142214285Y-63588095D01*
X153404761Y-59797619D02*
X153309523Y-59750000D01*
X153214285Y-59654761D01*
X153071428Y-59511904D01*
X152976190Y-59464285D01*
X152880952Y-59464285D01*
X152928571Y-59702380D02*
X152833333Y-59654761D01*
X152738095Y-59559523D01*
X152690476Y-59369047D01*
X152690476Y-59035714D01*
X152738095Y-58845238D01*
X152833333Y-58750000D01*
X152928571Y-58702380D01*
X153119047Y-58702380D01*
X153214285Y-58750000D01*
X153309523Y-58845238D01*
X153357142Y-59035714D01*
X153357142Y-59369047D01*
X153309523Y-59559523D01*
X153214285Y-59654761D01*
X153119047Y-59702380D01*
X152928571Y-59702380D01*
X154214285Y-59035714D02*
X154214285Y-59702380D01*
X153976190Y-58654761D02*
X153738095Y-59369047D01*
X154357142Y-59369047D01*
X146654761Y-59797619D02*
X146559523Y-59750000D01*
X146464285Y-59654761D01*
X146321428Y-59511904D01*
X146226190Y-59464285D01*
X146130952Y-59464285D01*
X146178571Y-59702380D02*
X146083333Y-59654761D01*
X145988095Y-59559523D01*
X145940476Y-59369047D01*
X145940476Y-59035714D01*
X145988095Y-58845238D01*
X146083333Y-58750000D01*
X146178571Y-58702380D01*
X146369047Y-58702380D01*
X146464285Y-58750000D01*
X146559523Y-58845238D01*
X146607142Y-59035714D01*
X146607142Y-59369047D01*
X146559523Y-59559523D01*
X146464285Y-59654761D01*
X146369047Y-59702380D01*
X146178571Y-59702380D01*
X146940476Y-58702380D02*
X147559523Y-58702380D01*
X147226190Y-59083333D01*
X147369047Y-59083333D01*
X147464285Y-59130952D01*
X147511904Y-59178571D01*
X147559523Y-59273809D01*
X147559523Y-59511904D01*
X147511904Y-59607142D01*
X147464285Y-59654761D01*
X147369047Y-59702380D01*
X147083333Y-59702380D01*
X146988095Y-59654761D01*
X146940476Y-59607142D01*
X145047619Y-68595238D02*
X145000000Y-68690476D01*
X144904761Y-68785714D01*
X144761904Y-68928571D01*
X144714285Y-69023809D01*
X144714285Y-69119047D01*
X144952380Y-69071428D02*
X144904761Y-69166666D01*
X144809523Y-69261904D01*
X144619047Y-69309523D01*
X144285714Y-69309523D01*
X144095238Y-69261904D01*
X144000000Y-69166666D01*
X143952380Y-69071428D01*
X143952380Y-68880952D01*
X144000000Y-68785714D01*
X144095238Y-68690476D01*
X144285714Y-68642857D01*
X144619047Y-68642857D01*
X144809523Y-68690476D01*
X144904761Y-68785714D01*
X144952380Y-68880952D01*
X144952380Y-69071428D01*
X144047619Y-68261904D02*
X144000000Y-68214285D01*
X143952380Y-68119047D01*
X143952380Y-67880952D01*
X144000000Y-67785714D01*
X144047619Y-67738095D01*
X144142857Y-67690476D01*
X144238095Y-67690476D01*
X144380952Y-67738095D01*
X144952380Y-68309523D01*
X144952380Y-67690476D01*
X138847619Y-60095238D02*
X138800000Y-60190476D01*
X138704761Y-60285714D01*
X138561904Y-60428571D01*
X138514285Y-60523809D01*
X138514285Y-60619047D01*
X138752380Y-60571428D02*
X138704761Y-60666666D01*
X138609523Y-60761904D01*
X138419047Y-60809523D01*
X138085714Y-60809523D01*
X137895238Y-60761904D01*
X137800000Y-60666666D01*
X137752380Y-60571428D01*
X137752380Y-60380952D01*
X137800000Y-60285714D01*
X137895238Y-60190476D01*
X138085714Y-60142857D01*
X138419047Y-60142857D01*
X138609523Y-60190476D01*
X138704761Y-60285714D01*
X138752380Y-60380952D01*
X138752380Y-60571428D01*
X138752380Y-59190476D02*
X138752380Y-59761904D01*
X138752380Y-59476190D02*
X137752380Y-59476190D01*
X137895238Y-59571428D01*
X137990476Y-59666666D01*
X138038095Y-59761904D01*
X127361666Y-54112380D02*
X127361666Y-54826666D01*
X127314047Y-54969523D01*
X127218809Y-55064761D01*
X127075952Y-55112380D01*
X126980714Y-55112380D01*
X128361666Y-55112380D02*
X127790238Y-55112380D01*
X128075952Y-55112380D02*
X128075952Y-54112380D01*
X127980714Y-54255238D01*
X127885476Y-54350476D01*
X127790238Y-54398095D01*
X147661904Y-69152380D02*
X147661904Y-68152380D01*
X147900000Y-68152380D01*
X148042857Y-68200000D01*
X148138095Y-68295238D01*
X148185714Y-68390476D01*
X148233333Y-68580952D01*
X148233333Y-68723809D01*
X148185714Y-68914285D01*
X148138095Y-69009523D01*
X148042857Y-69104761D01*
X147900000Y-69152380D01*
X147661904Y-69152380D01*
X149185714Y-69152380D02*
X148614285Y-69152380D01*
X148900000Y-69152380D02*
X148900000Y-68152380D01*
X148804761Y-68295238D01*
X148709523Y-68390476D01*
X148614285Y-68438095D01*
X157657142Y-65166666D02*
X157704761Y-65214285D01*
X157752380Y-65357142D01*
X157752380Y-65452380D01*
X157704761Y-65595238D01*
X157609523Y-65690476D01*
X157514285Y-65738095D01*
X157323809Y-65785714D01*
X157180952Y-65785714D01*
X156990476Y-65738095D01*
X156895238Y-65690476D01*
X156800000Y-65595238D01*
X156752380Y-65452380D01*
X156752380Y-65357142D01*
X156800000Y-65214285D01*
X156847619Y-65166666D01*
X156752380Y-64833333D02*
X156752380Y-64214285D01*
X157133333Y-64547619D01*
X157133333Y-64404761D01*
X157180952Y-64309523D01*
X157228571Y-64261904D01*
X157323809Y-64214285D01*
X157561904Y-64214285D01*
X157657142Y-64261904D01*
X157704761Y-64309523D01*
X157752380Y-64404761D01*
X157752380Y-64690476D01*
X157704761Y-64785714D01*
X157657142Y-64833333D01*
X157307142Y-71541666D02*
X157354761Y-71589285D01*
X157402380Y-71732142D01*
X157402380Y-71827380D01*
X157354761Y-71970238D01*
X157259523Y-72065476D01*
X157164285Y-72113095D01*
X156973809Y-72160714D01*
X156830952Y-72160714D01*
X156640476Y-72113095D01*
X156545238Y-72065476D01*
X156450000Y-71970238D01*
X156402380Y-71827380D01*
X156402380Y-71732142D01*
X156450000Y-71589285D01*
X156497619Y-71541666D01*
X156497619Y-71160714D02*
X156450000Y-71113095D01*
X156402380Y-71017857D01*
X156402380Y-70779761D01*
X156450000Y-70684523D01*
X156497619Y-70636904D01*
X156592857Y-70589285D01*
X156688095Y-70589285D01*
X156830952Y-70636904D01*
X157402380Y-71208333D01*
X157402380Y-70589285D01*
X155232142Y-71441666D02*
X155279761Y-71489285D01*
X155327380Y-71632142D01*
X155327380Y-71727380D01*
X155279761Y-71870238D01*
X155184523Y-71965476D01*
X155089285Y-72013095D01*
X154898809Y-72060714D01*
X154755952Y-72060714D01*
X154565476Y-72013095D01*
X154470238Y-71965476D01*
X154375000Y-71870238D01*
X154327380Y-71727380D01*
X154327380Y-71632142D01*
X154375000Y-71489285D01*
X154422619Y-71441666D01*
X155327380Y-70489285D02*
X155327380Y-71060714D01*
X155327380Y-70775000D02*
X154327380Y-70775000D01*
X154470238Y-70870238D01*
X154565476Y-70965476D01*
X154613095Y-71060714D01*
%LPC*%
D12*
X183240000Y-62450000D03*
X183240000Y-64950000D03*
G36*
G01*
X183965000Y-68300000D02*
X182515000Y-68300000D01*
G75*
G02*
X182265000Y-68050000I0J250000D01*
G01*
X182265000Y-66850000D01*
G75*
G02*
X182515000Y-66600000I250000J0D01*
G01*
X183965000Y-66600000D01*
G75*
G02*
X184215000Y-66850000I0J-250000D01*
G01*
X184215000Y-68050000D01*
G75*
G02*
X183965000Y-68300000I-250000J0D01*
G01*
G37*
X196740000Y-62450000D03*
X196740000Y-64950000D03*
G36*
G01*
X197465000Y-68300000D02*
X196015000Y-68300000D01*
G75*
G02*
X195765000Y-68050000I0J250000D01*
G01*
X195765000Y-66850000D01*
G75*
G02*
X196015000Y-66600000I250000J0D01*
G01*
X197465000Y-66600000D01*
G75*
G02*
X197715000Y-66850000I0J-250000D01*
G01*
X197715000Y-68050000D01*
G75*
G02*
X197465000Y-68300000I-250000J0D01*
G01*
G37*
D13*
X191500000Y-65000000D03*
X136000000Y-65000000D03*
X200000000Y-65000000D03*
X127500000Y-65000000D03*
G36*
G01*
X180580000Y-56819999D02*
X180580000Y-57720001D01*
G75*
G02*
X180330001Y-57970000I-249999J0D01*
G01*
X179679999Y-57970000D01*
G75*
G02*
X179430000Y-57720001I0J249999D01*
G01*
X179430000Y-56819999D01*
G75*
G02*
X179679999Y-56570000I249999J0D01*
G01*
X180330001Y-56570000D01*
G75*
G02*
X180580000Y-56819999I0J-249999D01*
G01*
G37*
G36*
G01*
X182630000Y-56819999D02*
X182630000Y-57720001D01*
G75*
G02*
X182380001Y-57970000I-249999J0D01*
G01*
X181729999Y-57970000D01*
G75*
G02*
X181480000Y-57720001I0J249999D01*
G01*
X181480000Y-56819999D01*
G75*
G02*
X181729999Y-56570000I249999J0D01*
G01*
X182380001Y-56570000D01*
G75*
G02*
X182630000Y-56819999I0J-249999D01*
G01*
G37*
G36*
G01*
X166125000Y-62375000D02*
X166125000Y-62175000D01*
G75*
G02*
X166225000Y-62075000I100000J0D01*
G01*
X167500000Y-62075000D01*
G75*
G02*
X167600000Y-62175000I0J-100000D01*
G01*
X167600000Y-62375000D01*
G75*
G02*
X167500000Y-62475000I-100000J0D01*
G01*
X166225000Y-62475000D01*
G75*
G02*
X166125000Y-62375000I0J100000D01*
G01*
G37*
G36*
G01*
X166125000Y-63025000D02*
X166125000Y-62825000D01*
G75*
G02*
X166225000Y-62725000I100000J0D01*
G01*
X167500000Y-62725000D01*
G75*
G02*
X167600000Y-62825000I0J-100000D01*
G01*
X167600000Y-63025000D01*
G75*
G02*
X167500000Y-63125000I-100000J0D01*
G01*
X166225000Y-63125000D01*
G75*
G02*
X166125000Y-63025000I0J100000D01*
G01*
G37*
G36*
G01*
X166125000Y-63675000D02*
X166125000Y-63475000D01*
G75*
G02*
X166225000Y-63375000I100000J0D01*
G01*
X167500000Y-63375000D01*
G75*
G02*
X167600000Y-63475000I0J-100000D01*
G01*
X167600000Y-63675000D01*
G75*
G02*
X167500000Y-63775000I-100000J0D01*
G01*
X166225000Y-63775000D01*
G75*
G02*
X166125000Y-63675000I0J100000D01*
G01*
G37*
G36*
G01*
X166125000Y-64325000D02*
X166125000Y-64125000D01*
G75*
G02*
X166225000Y-64025000I100000J0D01*
G01*
X167500000Y-64025000D01*
G75*
G02*
X167600000Y-64125000I0J-100000D01*
G01*
X167600000Y-64325000D01*
G75*
G02*
X167500000Y-64425000I-100000J0D01*
G01*
X166225000Y-64425000D01*
G75*
G02*
X166125000Y-64325000I0J100000D01*
G01*
G37*
G36*
G01*
X166125000Y-64975000D02*
X166125000Y-64775000D01*
G75*
G02*
X166225000Y-64675000I100000J0D01*
G01*
X167500000Y-64675000D01*
G75*
G02*
X167600000Y-64775000I0J-100000D01*
G01*
X167600000Y-64975000D01*
G75*
G02*
X167500000Y-65075000I-100000J0D01*
G01*
X166225000Y-65075000D01*
G75*
G02*
X166125000Y-64975000I0J100000D01*
G01*
G37*
G36*
G01*
X166125000Y-65625000D02*
X166125000Y-65425000D01*
G75*
G02*
X166225000Y-65325000I100000J0D01*
G01*
X167500000Y-65325000D01*
G75*
G02*
X167600000Y-65425000I0J-100000D01*
G01*
X167600000Y-65625000D01*
G75*
G02*
X167500000Y-65725000I-100000J0D01*
G01*
X166225000Y-65725000D01*
G75*
G02*
X166125000Y-65625000I0J100000D01*
G01*
G37*
G36*
G01*
X166125000Y-66275000D02*
X166125000Y-66075000D01*
G75*
G02*
X166225000Y-65975000I100000J0D01*
G01*
X167500000Y-65975000D01*
G75*
G02*
X167600000Y-66075000I0J-100000D01*
G01*
X167600000Y-66275000D01*
G75*
G02*
X167500000Y-66375000I-100000J0D01*
G01*
X166225000Y-66375000D01*
G75*
G02*
X166125000Y-66275000I0J100000D01*
G01*
G37*
G36*
G01*
X166125000Y-66925000D02*
X166125000Y-66725000D01*
G75*
G02*
X166225000Y-66625000I100000J0D01*
G01*
X167500000Y-66625000D01*
G75*
G02*
X167600000Y-66725000I0J-100000D01*
G01*
X167600000Y-66925000D01*
G75*
G02*
X167500000Y-67025000I-100000J0D01*
G01*
X166225000Y-67025000D01*
G75*
G02*
X166125000Y-66925000I0J100000D01*
G01*
G37*
G36*
G01*
X166125000Y-67575000D02*
X166125000Y-67375000D01*
G75*
G02*
X166225000Y-67275000I100000J0D01*
G01*
X167500000Y-67275000D01*
G75*
G02*
X167600000Y-67375000I0J-100000D01*
G01*
X167600000Y-67575000D01*
G75*
G02*
X167500000Y-67675000I-100000J0D01*
G01*
X166225000Y-67675000D01*
G75*
G02*
X166125000Y-67575000I0J100000D01*
G01*
G37*
G36*
G01*
X166125000Y-68225000D02*
X166125000Y-68025000D01*
G75*
G02*
X166225000Y-67925000I100000J0D01*
G01*
X167500000Y-67925000D01*
G75*
G02*
X167600000Y-68025000I0J-100000D01*
G01*
X167600000Y-68225000D01*
G75*
G02*
X167500000Y-68325000I-100000J0D01*
G01*
X166225000Y-68325000D01*
G75*
G02*
X166125000Y-68225000I0J100000D01*
G01*
G37*
G36*
G01*
X160400000Y-68225000D02*
X160400000Y-68025000D01*
G75*
G02*
X160500000Y-67925000I100000J0D01*
G01*
X161775000Y-67925000D01*
G75*
G02*
X161875000Y-68025000I0J-100000D01*
G01*
X161875000Y-68225000D01*
G75*
G02*
X161775000Y-68325000I-100000J0D01*
G01*
X160500000Y-68325000D01*
G75*
G02*
X160400000Y-68225000I0J100000D01*
G01*
G37*
G36*
G01*
X160400000Y-67575000D02*
X160400000Y-67375000D01*
G75*
G02*
X160500000Y-67275000I100000J0D01*
G01*
X161775000Y-67275000D01*
G75*
G02*
X161875000Y-67375000I0J-100000D01*
G01*
X161875000Y-67575000D01*
G75*
G02*
X161775000Y-67675000I-100000J0D01*
G01*
X160500000Y-67675000D01*
G75*
G02*
X160400000Y-67575000I0J100000D01*
G01*
G37*
G36*
G01*
X160400000Y-66925000D02*
X160400000Y-66725000D01*
G75*
G02*
X160500000Y-66625000I100000J0D01*
G01*
X161775000Y-66625000D01*
G75*
G02*
X161875000Y-66725000I0J-100000D01*
G01*
X161875000Y-66925000D01*
G75*
G02*
X161775000Y-67025000I-100000J0D01*
G01*
X160500000Y-67025000D01*
G75*
G02*
X160400000Y-66925000I0J100000D01*
G01*
G37*
G36*
G01*
X160400000Y-66275000D02*
X160400000Y-66075000D01*
G75*
G02*
X160500000Y-65975000I100000J0D01*
G01*
X161775000Y-65975000D01*
G75*
G02*
X161875000Y-66075000I0J-100000D01*
G01*
X161875000Y-66275000D01*
G75*
G02*
X161775000Y-66375000I-100000J0D01*
G01*
X160500000Y-66375000D01*
G75*
G02*
X160400000Y-66275000I0J100000D01*
G01*
G37*
G36*
G01*
X160400000Y-65625000D02*
X160400000Y-65425000D01*
G75*
G02*
X160500000Y-65325000I100000J0D01*
G01*
X161775000Y-65325000D01*
G75*
G02*
X161875000Y-65425000I0J-100000D01*
G01*
X161875000Y-65625000D01*
G75*
G02*
X161775000Y-65725000I-100000J0D01*
G01*
X160500000Y-65725000D01*
G75*
G02*
X160400000Y-65625000I0J100000D01*
G01*
G37*
G36*
G01*
X160400000Y-64975000D02*
X160400000Y-64775000D01*
G75*
G02*
X160500000Y-64675000I100000J0D01*
G01*
X161775000Y-64675000D01*
G75*
G02*
X161875000Y-64775000I0J-100000D01*
G01*
X161875000Y-64975000D01*
G75*
G02*
X161775000Y-65075000I-100000J0D01*
G01*
X160500000Y-65075000D01*
G75*
G02*
X160400000Y-64975000I0J100000D01*
G01*
G37*
G36*
G01*
X160400000Y-64325000D02*
X160400000Y-64125000D01*
G75*
G02*
X160500000Y-64025000I100000J0D01*
G01*
X161775000Y-64025000D01*
G75*
G02*
X161875000Y-64125000I0J-100000D01*
G01*
X161875000Y-64325000D01*
G75*
G02*
X161775000Y-64425000I-100000J0D01*
G01*
X160500000Y-64425000D01*
G75*
G02*
X160400000Y-64325000I0J100000D01*
G01*
G37*
G36*
G01*
X160400000Y-63675000D02*
X160400000Y-63475000D01*
G75*
G02*
X160500000Y-63375000I100000J0D01*
G01*
X161775000Y-63375000D01*
G75*
G02*
X161875000Y-63475000I0J-100000D01*
G01*
X161875000Y-63675000D01*
G75*
G02*
X161775000Y-63775000I-100000J0D01*
G01*
X160500000Y-63775000D01*
G75*
G02*
X160400000Y-63675000I0J100000D01*
G01*
G37*
G36*
G01*
X160400000Y-63025000D02*
X160400000Y-62825000D01*
G75*
G02*
X160500000Y-62725000I100000J0D01*
G01*
X161775000Y-62725000D01*
G75*
G02*
X161875000Y-62825000I0J-100000D01*
G01*
X161875000Y-63025000D01*
G75*
G02*
X161775000Y-63125000I-100000J0D01*
G01*
X160500000Y-63125000D01*
G75*
G02*
X160400000Y-63025000I0J100000D01*
G01*
G37*
G36*
G01*
X160400000Y-62375000D02*
X160400000Y-62175000D01*
G75*
G02*
X160500000Y-62075000I100000J0D01*
G01*
X161775000Y-62075000D01*
G75*
G02*
X161875000Y-62175000I0J-100000D01*
G01*
X161875000Y-62375000D01*
G75*
G02*
X161775000Y-62475000I-100000J0D01*
G01*
X160500000Y-62475000D01*
G75*
G02*
X160400000Y-62375000I0J100000D01*
G01*
G37*
D14*
X170900000Y-67250000D03*
X170900000Y-62750000D03*
X177400000Y-67250000D03*
X177400000Y-62750000D03*
G36*
G01*
X144799999Y-72950000D02*
X145700001Y-72950000D01*
G75*
G02*
X145950000Y-73199999I0J-249999D01*
G01*
X145950000Y-73850001D01*
G75*
G02*
X145700001Y-74100000I-249999J0D01*
G01*
X144799999Y-74100000D01*
G75*
G02*
X144550000Y-73850001I0J249999D01*
G01*
X144550000Y-73199999D01*
G75*
G02*
X144799999Y-72950000I249999J0D01*
G01*
G37*
G36*
G01*
X144799999Y-70900000D02*
X145700001Y-70900000D01*
G75*
G02*
X145950000Y-71149999I0J-249999D01*
G01*
X145950000Y-71800001D01*
G75*
G02*
X145700001Y-72050000I-249999J0D01*
G01*
X144799999Y-72050000D01*
G75*
G02*
X144550000Y-71800001I0J249999D01*
G01*
X144550000Y-71149999D01*
G75*
G02*
X144799999Y-70900000I249999J0D01*
G01*
G37*
G36*
G01*
X152049999Y-68950000D02*
X152950001Y-68950000D01*
G75*
G02*
X153200000Y-69199999I0J-249999D01*
G01*
X153200000Y-69850001D01*
G75*
G02*
X152950001Y-70100000I-249999J0D01*
G01*
X152049999Y-70100000D01*
G75*
G02*
X151800000Y-69850001I0J249999D01*
G01*
X151800000Y-69199999D01*
G75*
G02*
X152049999Y-68950000I249999J0D01*
G01*
G37*
G36*
G01*
X152049999Y-66900000D02*
X152950001Y-66900000D01*
G75*
G02*
X153200000Y-67149999I0J-249999D01*
G01*
X153200000Y-67800001D01*
G75*
G02*
X152950001Y-68050000I-249999J0D01*
G01*
X152049999Y-68050000D01*
G75*
G02*
X151800000Y-67800001I0J249999D01*
G01*
X151800000Y-67149999D01*
G75*
G02*
X152049999Y-66900000I249999J0D01*
G01*
G37*
G36*
G01*
X137749999Y-71250000D02*
X138650001Y-71250000D01*
G75*
G02*
X138900000Y-71499999I0J-249999D01*
G01*
X138900000Y-72150001D01*
G75*
G02*
X138650001Y-72400000I-249999J0D01*
G01*
X137749999Y-72400000D01*
G75*
G02*
X137500000Y-72150001I0J249999D01*
G01*
X137500000Y-71499999D01*
G75*
G02*
X137749999Y-71250000I249999J0D01*
G01*
G37*
G36*
G01*
X137749999Y-69200000D02*
X138650001Y-69200000D01*
G75*
G02*
X138900000Y-69449999I0J-249999D01*
G01*
X138900000Y-70100001D01*
G75*
G02*
X138650001Y-70350000I-249999J0D01*
G01*
X137749999Y-70350000D01*
G75*
G02*
X137500000Y-70100001I0J249999D01*
G01*
X137500000Y-69449999D01*
G75*
G02*
X137749999Y-69200000I249999J0D01*
G01*
G37*
G36*
G01*
X150200001Y-61300000D02*
X149299999Y-61300000D01*
G75*
G02*
X149050000Y-61050001I0J249999D01*
G01*
X149050000Y-60399999D01*
G75*
G02*
X149299999Y-60150000I249999J0D01*
G01*
X150200001Y-60150000D01*
G75*
G02*
X150450000Y-60399999I0J-249999D01*
G01*
X150450000Y-61050001D01*
G75*
G02*
X150200001Y-61300000I-249999J0D01*
G01*
G37*
G36*
G01*
X150200001Y-63350000D02*
X149299999Y-63350000D01*
G75*
G02*
X149050000Y-63100001I0J249999D01*
G01*
X149050000Y-62449999D01*
G75*
G02*
X149299999Y-62200000I249999J0D01*
G01*
X150200001Y-62200000D01*
G75*
G02*
X150450000Y-62449999I0J-249999D01*
G01*
X150450000Y-63100001D01*
G75*
G02*
X150200001Y-63350000I-249999J0D01*
G01*
G37*
G36*
G01*
X148700000Y-66950001D02*
X148700000Y-66049999D01*
G75*
G02*
X148949999Y-65800000I249999J0D01*
G01*
X149600001Y-65800000D01*
G75*
G02*
X149850000Y-66049999I0J-249999D01*
G01*
X149850000Y-66950001D01*
G75*
G02*
X149600001Y-67200000I-249999J0D01*
G01*
X148949999Y-67200000D01*
G75*
G02*
X148700000Y-66950001I0J249999D01*
G01*
G37*
G36*
G01*
X146650000Y-66950001D02*
X146650000Y-66049999D01*
G75*
G02*
X146899999Y-65800000I249999J0D01*
G01*
X147550001Y-65800000D01*
G75*
G02*
X147800000Y-66049999I0J-249999D01*
G01*
X147800000Y-66950001D01*
G75*
G02*
X147550001Y-67200000I-249999J0D01*
G01*
X146899999Y-67200000D01*
G75*
G02*
X146650000Y-66950001I0J249999D01*
G01*
G37*
G36*
G01*
X142450000Y-65950001D02*
X142450000Y-65049999D01*
G75*
G02*
X142699999Y-64800000I249999J0D01*
G01*
X143350001Y-64800000D01*
G75*
G02*
X143600000Y-65049999I0J-249999D01*
G01*
X143600000Y-65950001D01*
G75*
G02*
X143350001Y-66200000I-249999J0D01*
G01*
X142699999Y-66200000D01*
G75*
G02*
X142450000Y-65950001I0J249999D01*
G01*
G37*
G36*
G01*
X140400000Y-65950001D02*
X140400000Y-65049999D01*
G75*
G02*
X140649999Y-64800000I249999J0D01*
G01*
X141300001Y-64800000D01*
G75*
G02*
X141550000Y-65049999I0J-249999D01*
G01*
X141550000Y-65950001D01*
G75*
G02*
X141300001Y-66200000I-249999J0D01*
G01*
X140649999Y-66200000D01*
G75*
G02*
X140400000Y-65950001I0J249999D01*
G01*
G37*
D15*
X154500000Y-61750000D03*
X152500000Y-62700000D03*
X152500000Y-60800000D03*
X145750000Y-61750000D03*
X147750000Y-60800000D03*
X147750000Y-62700000D03*
D16*
X142000000Y-69500000D03*
X141050000Y-67500000D03*
X142950000Y-67500000D03*
X140800000Y-59000000D03*
X141750000Y-61000000D03*
X139850000Y-61000000D03*
D17*
X132140000Y-57200000D03*
X132140000Y-58470000D03*
X130870000Y-57200000D03*
X130870000Y-58470000D03*
X129600000Y-57200000D03*
X129600000Y-58470000D03*
D15*
X149400000Y-71200000D03*
X147400000Y-72150000D03*
X147400000Y-70250000D03*
G36*
G01*
X159350001Y-64850000D02*
X158449999Y-64850000D01*
G75*
G02*
X158200000Y-64600001I0J249999D01*
G01*
X158200000Y-63949999D01*
G75*
G02*
X158449999Y-63700000I249999J0D01*
G01*
X159350001Y-63700000D01*
G75*
G02*
X159600000Y-63949999I0J-249999D01*
G01*
X159600000Y-64600001D01*
G75*
G02*
X159350001Y-64850000I-249999J0D01*
G01*
G37*
G36*
G01*
X159350001Y-66900000D02*
X158449999Y-66900000D01*
G75*
G02*
X158200000Y-66650001I0J249999D01*
G01*
X158200000Y-65999999D01*
G75*
G02*
X158449999Y-65750000I249999J0D01*
G01*
X159350001Y-65750000D01*
G75*
G02*
X159600000Y-65999999I0J-249999D01*
G01*
X159600000Y-66650001D01*
G75*
G02*
X159350001Y-66900000I-249999J0D01*
G01*
G37*
G36*
G01*
X157400001Y-68050000D02*
X156499999Y-68050000D01*
G75*
G02*
X156250000Y-67800001I0J249999D01*
G01*
X156250000Y-67149999D01*
G75*
G02*
X156499999Y-66900000I249999J0D01*
G01*
X157400001Y-66900000D01*
G75*
G02*
X157650000Y-67149999I0J-249999D01*
G01*
X157650000Y-67800001D01*
G75*
G02*
X157400001Y-68050000I-249999J0D01*
G01*
G37*
G36*
G01*
X157400001Y-70100000D02*
X156499999Y-70100000D01*
G75*
G02*
X156250000Y-69850001I0J249999D01*
G01*
X156250000Y-69199999D01*
G75*
G02*
X156499999Y-68950000I249999J0D01*
G01*
X157400001Y-68950000D01*
G75*
G02*
X157650000Y-69199999I0J-249999D01*
G01*
X157650000Y-69850001D01*
G75*
G02*
X157400001Y-70100000I-249999J0D01*
G01*
G37*
G36*
G01*
X155275001Y-68050000D02*
X154374999Y-68050000D01*
G75*
G02*
X154125000Y-67800001I0J249999D01*
G01*
X154125000Y-67149999D01*
G75*
G02*
X154374999Y-66900000I249999J0D01*
G01*
X155275001Y-66900000D01*
G75*
G02*
X155525000Y-67149999I0J-249999D01*
G01*
X155525000Y-67800001D01*
G75*
G02*
X155275001Y-68050000I-249999J0D01*
G01*
G37*
G36*
G01*
X155275001Y-70100000D02*
X154374999Y-70100000D01*
G75*
G02*
X154125000Y-69850001I0J249999D01*
G01*
X154125000Y-69199999D01*
G75*
G02*
X154374999Y-68950000I249999J0D01*
G01*
X155275001Y-68950000D01*
G75*
G02*
X155525000Y-69199999I0J-249999D01*
G01*
X155525000Y-69850001D01*
G75*
G02*
X155275001Y-70100000I-249999J0D01*
G01*
G37*
M02*
