G04 #@! TF.GenerationSoftware,KiCad,Pcbnew,(5.1.10)-1*
G04 #@! TF.CreationDate,2021-10-05T02:57:27+03:00*
G04 #@! TF.ProjectId,led_controller_stm8,6c65645f-636f-46e7-9472-6f6c6c65725f,rev?*
G04 #@! TF.SameCoordinates,Original*
G04 #@! TF.FileFunction,Profile,NP*
%FSLAX46Y46*%
G04 Gerber Fmt 4.6, Leading zero omitted, Abs format (unit mm)*
G04 Created by KiCad (PCBNEW (5.1.10)-1) date 2021-10-05 02:57:27*
%MOMM*%
%LPD*%
G01*
G04 APERTURE LIST*
G04 #@! TA.AperFunction,Profile*
%ADD10C,0.050000*%
G04 #@! TD*
G04 APERTURE END LIST*
D10*
X202500000Y-70250000D02*
X202500000Y-59750000D01*
X203500000Y-70250000D02*
X202500000Y-70250000D01*
X203500000Y-76500000D02*
X203500000Y-70250000D01*
X203500000Y-59750000D02*
X202500000Y-59750000D01*
X203500000Y-53500000D02*
X203500000Y-59750000D01*
X125000000Y-70250000D02*
X125000000Y-59750000D01*
X124000000Y-70250000D02*
X125000000Y-70250000D01*
X124000000Y-76500000D02*
X124000000Y-70250000D01*
X124000000Y-59750000D02*
X125000000Y-59750000D01*
X124000000Y-53500000D02*
X124000000Y-59750000D01*
X169000000Y-76500000D02*
X203500000Y-76500000D01*
X169000000Y-75000000D02*
X169000000Y-76500000D01*
X158500000Y-75000000D02*
X169000000Y-75000000D01*
X158500000Y-76500000D02*
X158500000Y-75000000D01*
X124000000Y-76500000D02*
X158500000Y-76500000D01*
X169000000Y-55000000D02*
X169000000Y-53500000D01*
X158500000Y-55000000D02*
X169000000Y-55000000D01*
X158500000Y-53500000D02*
X158500000Y-55000000D01*
X124000000Y-53500000D02*
X158500000Y-53500000D01*
X203500000Y-53500000D02*
X169000000Y-53500000D01*
M02*
