G04 #@! TF.GenerationSoftware,KiCad,Pcbnew,(5.1.10)-1*
G04 #@! TF.CreationDate,2021-10-05T02:57:27+03:00*
G04 #@! TF.ProjectId,led_controller_stm8,6c65645f-636f-46e7-9472-6f6c6c65725f,rev?*
G04 #@! TF.SameCoordinates,Original*
G04 #@! TF.FileFunction,Copper,L2,Bot*
G04 #@! TF.FilePolarity,Positive*
%FSLAX46Y46*%
G04 Gerber Fmt 4.6, Leading zero omitted, Abs format (unit mm)*
G04 Created by KiCad (PCBNEW (5.1.10)-1) date 2021-10-05 02:57:27*
%MOMM*%
%LPD*%
G01*
G04 APERTURE LIST*
G04 #@! TA.AperFunction,NonConductor*
%ADD10C,0.300000*%
G04 #@! TD*
G04 #@! TA.AperFunction,ComponentPad*
%ADD11O,1.950000X1.700000*%
G04 #@! TD*
G04 #@! TA.AperFunction,ComponentPad*
%ADD12C,3.500000*%
G04 #@! TD*
G04 #@! TA.AperFunction,ComponentPad*
%ADD13C,2.000000*%
G04 #@! TD*
G04 #@! TA.AperFunction,ComponentPad*
%ADD14C,1.000000*%
G04 #@! TD*
G04 #@! TA.AperFunction,ViaPad*
%ADD15C,1.000000*%
G04 #@! TD*
G04 #@! TA.AperFunction,ViaPad*
%ADD16C,0.800000*%
G04 #@! TD*
G04 #@! TA.AperFunction,Conductor*
%ADD17C,1.000000*%
G04 #@! TD*
G04 #@! TA.AperFunction,Conductor*
%ADD18C,0.250000*%
G04 #@! TD*
G04 #@! TA.AperFunction,Conductor*
%ADD19C,2.000000*%
G04 #@! TD*
G04 #@! TA.AperFunction,Conductor*
%ADD20C,0.254000*%
G04 #@! TD*
G04 #@! TA.AperFunction,Conductor*
%ADD21C,0.100000*%
G04 #@! TD*
G04 APERTURE END LIST*
D10*
X136714285Y-74178571D02*
X136714285Y-72678571D01*
X136357142Y-72678571D01*
X136142857Y-72750000D01*
X136000000Y-72892857D01*
X135928571Y-73035714D01*
X135857142Y-73321428D01*
X135857142Y-73535714D01*
X135928571Y-73821428D01*
X136000000Y-73964285D01*
X136142857Y-74107142D01*
X136357142Y-74178571D01*
X136714285Y-74178571D01*
X135285714Y-73750000D02*
X134571428Y-73750000D01*
X135428571Y-74178571D02*
X134928571Y-72678571D01*
X134428571Y-74178571D01*
X133928571Y-74178571D02*
X133928571Y-72678571D01*
X133928571Y-73250000D02*
X133785714Y-73178571D01*
X133500000Y-73178571D01*
X133357142Y-73250000D01*
X133285714Y-73321428D01*
X133214285Y-73464285D01*
X133214285Y-73892857D01*
X133285714Y-74035714D01*
X133357142Y-74107142D01*
X133500000Y-74178571D01*
X133785714Y-74178571D01*
X133928571Y-74107142D01*
X132571428Y-74178571D02*
X132571428Y-73178571D01*
X132571428Y-73464285D02*
X132500000Y-73321428D01*
X132428571Y-73250000D01*
X132285714Y-73178571D01*
X132142857Y-73178571D01*
X131000000Y-74178571D02*
X131000000Y-73392857D01*
X131071428Y-73250000D01*
X131214285Y-73178571D01*
X131500000Y-73178571D01*
X131642857Y-73250000D01*
X131000000Y-74107142D02*
X131142857Y-74178571D01*
X131500000Y-74178571D01*
X131642857Y-74107142D01*
X131714285Y-73964285D01*
X131714285Y-73821428D01*
X131642857Y-73678571D01*
X131500000Y-73607142D01*
X131142857Y-73607142D01*
X131000000Y-73535714D01*
X130285714Y-74178571D02*
X130285714Y-73178571D01*
X130285714Y-73321428D02*
X130214285Y-73250000D01*
X130071428Y-73178571D01*
X129857142Y-73178571D01*
X129714285Y-73250000D01*
X129642857Y-73392857D01*
X129642857Y-74178571D01*
X129642857Y-73392857D02*
X129571428Y-73250000D01*
X129428571Y-73178571D01*
X129214285Y-73178571D01*
X129071428Y-73250000D01*
X129000000Y-73392857D01*
X129000000Y-74178571D01*
X127642857Y-74178571D02*
X127642857Y-73392857D01*
X127714285Y-73250000D01*
X127857142Y-73178571D01*
X128142857Y-73178571D01*
X128285714Y-73250000D01*
X127642857Y-74107142D02*
X127785714Y-74178571D01*
X128142857Y-74178571D01*
X128285714Y-74107142D01*
X128357142Y-73964285D01*
X128357142Y-73821428D01*
X128285714Y-73678571D01*
X128142857Y-73607142D01*
X127785714Y-73607142D01*
X127642857Y-73535714D01*
X126285714Y-73178571D02*
X126285714Y-74178571D01*
X126928571Y-73178571D02*
X126928571Y-73964285D01*
X126857142Y-74107142D01*
X126714285Y-74178571D01*
X126500000Y-74178571D01*
X126357142Y-74107142D01*
X126285714Y-74035714D01*
D11*
X183240000Y-62450000D03*
X183240000Y-64950000D03*
G04 #@! TA.AperFunction,ComponentPad*
G36*
G01*
X183965000Y-68300000D02*
X182515000Y-68300000D01*
G75*
G02*
X182265000Y-68050000I0J250000D01*
G01*
X182265000Y-66850000D01*
G75*
G02*
X182515000Y-66600000I250000J0D01*
G01*
X183965000Y-66600000D01*
G75*
G02*
X184215000Y-66850000I0J-250000D01*
G01*
X184215000Y-68050000D01*
G75*
G02*
X183965000Y-68300000I-250000J0D01*
G01*
G37*
G04 #@! TD.AperFunction*
X196740000Y-62450000D03*
X196740000Y-64950000D03*
G04 #@! TA.AperFunction,ComponentPad*
G36*
G01*
X197465000Y-68300000D02*
X196015000Y-68300000D01*
G75*
G02*
X195765000Y-68050000I0J250000D01*
G01*
X195765000Y-66850000D01*
G75*
G02*
X196015000Y-66600000I250000J0D01*
G01*
X197465000Y-66600000D01*
G75*
G02*
X197715000Y-66850000I0J-250000D01*
G01*
X197715000Y-68050000D01*
G75*
G02*
X197465000Y-68300000I-250000J0D01*
G01*
G37*
G04 #@! TD.AperFunction*
D12*
X200000000Y-65000000D03*
X127500000Y-65000000D03*
D13*
X170900000Y-67250000D03*
X170900000Y-62750000D03*
X177400000Y-67250000D03*
X177400000Y-62750000D03*
D14*
X132140000Y-57200000D03*
X132140000Y-58470000D03*
X130870000Y-57200000D03*
X130870000Y-58470000D03*
X129600000Y-57200000D03*
X129600000Y-58470000D03*
D15*
X132000004Y-68500010D03*
X141800000Y-72750000D03*
X141800000Y-71250000D03*
X140500000Y-71250000D03*
X140500000Y-72750000D03*
D16*
X168000000Y-60700000D03*
X150750000Y-69250000D03*
X169300000Y-60700000D03*
X150750000Y-70750000D03*
X163449988Y-64250000D03*
X162675000Y-62925000D03*
X165100000Y-62399994D03*
X145250000Y-64750000D03*
X156000000Y-61750000D03*
X151750000Y-66000006D03*
X151250000Y-62750000D03*
X150750000Y-67500008D03*
D17*
X127600000Y-58400000D02*
X127600000Y-59900000D01*
X129600000Y-57200000D02*
X128800000Y-57200000D01*
X132000004Y-64300004D02*
X132000004Y-68500010D01*
X128800000Y-57200000D02*
X127600000Y-58400000D01*
X127600000Y-59900000D02*
X132000004Y-64300004D01*
D18*
X177150000Y-67250000D02*
X177400000Y-67500000D01*
X171150000Y-67250000D02*
X177150000Y-67250000D01*
X170900000Y-67500000D02*
X171150000Y-67250000D01*
D19*
X183240000Y-62450000D02*
X183240000Y-62000000D01*
X183240000Y-62000000D02*
X185980000Y-59260000D01*
X193550000Y-59260000D02*
X196740000Y-62450000D01*
X185980000Y-59260000D02*
X193550000Y-59260000D01*
X196750000Y-67500000D02*
X196750000Y-67475000D01*
X191700000Y-72550000D02*
X196750000Y-67500000D01*
X183240000Y-72490000D02*
X183300000Y-72550000D01*
X183240000Y-67450000D02*
X183240000Y-72490000D01*
X183300000Y-72550000D02*
X191700000Y-72550000D01*
X141800000Y-72550000D02*
X183300000Y-72550000D01*
D18*
X168000000Y-60700000D02*
X168000000Y-68200000D01*
X168000000Y-68200000D02*
X166950000Y-69250000D01*
X166950000Y-69250000D02*
X150750000Y-69250000D01*
X166750000Y-70750000D02*
X150750000Y-70750000D01*
X169300000Y-60700000D02*
X169300000Y-68200000D01*
X169300000Y-68200000D02*
X166750000Y-70750000D01*
X163449988Y-60399988D02*
X163449988Y-64250000D01*
X159800000Y-56750000D02*
X163449988Y-60399988D01*
X132590000Y-56750000D02*
X159800000Y-56750000D01*
X132140000Y-57200000D02*
X132590000Y-56750000D01*
X162675000Y-60875000D02*
X162675000Y-62925000D01*
X159400000Y-57600000D02*
X162675000Y-60875000D01*
X133010000Y-57600000D02*
X132140000Y-58470000D01*
X159400000Y-57600000D02*
X133010000Y-57600000D01*
X130870000Y-56530000D02*
X130870000Y-57200000D01*
X131400000Y-56000000D02*
X130870000Y-56530000D01*
X159500000Y-56000000D02*
X131400000Y-56000000D01*
X165100000Y-60984315D02*
X165100000Y-62399994D01*
X160115685Y-56000000D02*
X165100000Y-60984315D01*
X159500000Y-56000000D02*
X160115685Y-56000000D01*
X131800000Y-59400000D02*
X130870000Y-58470000D01*
X139900000Y-59400000D02*
X131800000Y-59400000D01*
X145250000Y-64750000D02*
X139900000Y-59400000D01*
X177150000Y-62750000D02*
X177400000Y-63000000D01*
X170900000Y-62750000D02*
X177150000Y-62750000D01*
X156000000Y-61750000D02*
X151750000Y-66000000D01*
X151750000Y-66000000D02*
X151750000Y-66000006D01*
X150750000Y-63250000D02*
X150750000Y-67500008D01*
X151250000Y-62750000D02*
X150750000Y-63250000D01*
D20*
X142623000Y-73373000D02*
X139877000Y-73373000D01*
X139877000Y-70627000D01*
X142623000Y-70627000D01*
X142623000Y-73373000D01*
G04 #@! TA.AperFunction,Conductor*
D21*
G36*
X142623000Y-73373000D02*
G01*
X139877000Y-73373000D01*
X139877000Y-70627000D01*
X142623000Y-70627000D01*
X142623000Y-73373000D01*
G37*
G04 #@! TD.AperFunction*
M02*
